<svg width="768" height="912" viewBox="0 0 768 912" fill="none" xmlns="http://www.w3.org/2000/svg">
<path d="M622.552 430.556C598.457 358.207 505.066 355.268 461.382 362.842C262.659 417.797 309.929 551.296 382.737 609.887C390.978 616.519 403.852 634.203 396.975 660.102C386.459 731.175 440.046 743.779 467.627 743.779C516.327 743.779 544.32 704.695 544.32 704.695C584.03 655.163 597.465 666.803 625.565 666.803C715.212 666.803 776.067 629.917 793.821 580.175C808.025 540.381 770.26 523.989 749.603 520.768C717.293 520.842 646.648 502.904 622.552 430.556Z" fill="url(#paint0_radial)"/>
<path d="M39.8385 764.359C40.9466 783.74 26.848 816.205 -27.6052 815.972C-79.9317 815.748 -125.483 893.476 -143.902 906.31C-162.322 919.145 -186.711 909.668 -198.769 858.971C-210.827 808.274 -179.482 795.975 -162.302 796.162C-148.64 797.048 -118.729 797.302 -108.384 791.23C-98.0396 785.159 -98.0869 773.919 -81.1831 743.631C-64.2794 713.343 -52.998 709.561 -14.9506 715.107C23.0967 720.652 38.7305 744.977 39.8385 764.359Z" fill="url(#paint1_linear)"/>
<path d="M688.479 738.005C684.383 764.09 655.916 781.287 624.898 776.416C593.879 771.544 572.055 746.449 576.151 720.364C580.248 694.278 608.715 677.081 639.733 681.953C670.752 686.825 692.576 711.92 688.479 738.005Z" fill="url(#paint2_linear)"/>
<path d="M743.088 11.0468C748.189 0.875112 762.13 -2.45323 774.225 3.61274C786.321 9.67872 791.991 22.842 786.89 33.0137C781.788 43.1854 767.848 46.5137 755.752 40.4477C743.657 34.3818 737.987 21.2185 743.088 11.0468Z" fill="url(#paint3_linear)"/>
<path d="M786.716 348.421C860.76 418.996 901.764 394.557 910.165 440.205C932.726 562.792 709.61 533.406 647.276 414.368C593.851 303.955 534.76 98.8515 721.38 57.9712C877.303 32.8945 712.673 277.846 786.716 348.421Z" fill="url(#paint4_linear)"/>
<path d="M8.21398 686.957C10.9143 672.9 26.6544 664.107 43.3706 667.318C60.0867 670.529 71.4488 684.528 68.7485 698.586C66.0482 712.643 50.3081 721.436 33.5919 718.225C16.8758 715.014 5.51367 701.015 8.21398 686.957Z" fill="url(#paint5_linear)"/>
<g clip-path="url(#clip0)">
<path opacity="0.5" d="M489.784 549.303L354.438 481.073C350.612 479.14 350.866 475.382 355.005 472.663L441.321 416.089C445.459 413.37 451.921 412.743 455.747 414.667L591.093 482.897C594.92 484.831 594.665 488.589 590.527 491.308L504.21 547.881C500.081 550.6 493.619 551.227 489.784 549.303Z" fill="#173D7A"/>
<path d="M625.697 319.572L480.244 246.256C478.558 245.406 476.881 245.349 475.438 245.943L475.446 245.925L475.192 246.038C475.174 246.048 475.148 246.059 475.131 246.069L470.155 248.304L474.847 250.279C474.834 250.36 474.812 250.443 474.799 250.533L456.337 365.119C455.486 370.414 458.129 376.383 462.242 378.454L604.193 450.007L604.03 455.857L609.469 453.389C611.286 452.413 612.671 450.345 613.131 447.493L631.592 332.908C632.462 327.621 629.819 321.651 625.697 319.572Z" fill="#173D7A"/>
<path d="M625.697 319.572L480.244 246.256C478.558 245.406 476.881 245.349 475.438 245.943L475.446 245.925L475.192 246.038C475.174 246.048 475.148 246.059 475.131 246.069L470.155 248.304L474.847 250.279C474.834 250.36 474.812 250.443 474.799 250.533L462.139 329.07L534.098 378.849L630.465 324.944C629.394 322.566 627.726 320.6 625.697 319.572Z" fill="#396CAA"/>
<path d="M621.297 335.931L631.758 330.757C631.72 326.592 629.754 322.402 626.807 320.265L610.24 328.369L621.297 335.931Z" fill="#274F89"/>
<path d="M599.118 455.578L453.665 382.261C449.552 380.191 446.909 374.212 447.761 368.926L466.223 254.341C467.074 249.046 471.102 246.441 475.215 248.512L620.668 321.829C624.781 323.899 627.425 329.878 626.573 335.164L608.111 449.749C607.26 455.053 603.232 457.657 599.118 455.578Z" fill="#D4ECFF"/>
<path d="M621.995 321.267L476.542 247.951C474.55 246.948 472.586 247.059 470.985 248.023C472.296 247.661 473.752 247.776 475.216 248.521L620.669 321.838C624.782 323.908 627.425 329.887 626.573 335.173L608.111 449.758C607.672 452.483 606.382 454.482 604.676 455.506C607.024 454.85 608.884 452.585 609.429 449.188L627.891 334.603C628.752 329.316 626.108 323.338 621.995 321.267Z" fill="white"/>
<path d="M595.628 447.992L458.83 379.07C455.068 377.169 452.643 371.709 453.422 366.868L470.44 261.265C471.218 256.424 474.908 254.037 478.669 255.938L615.467 324.86C619.229 326.761 621.654 332.221 620.876 337.062L603.857 442.656C603.078 447.497 599.389 449.884 595.628 447.992Z" fill="white"/>
<path d="M595.628 447.992L458.83 379.07C455.068 377.169 452.643 371.709 453.422 366.868L470.44 261.265C471.218 256.424 474.908 254.037 478.669 255.938L615.467 324.86C619.229 326.761 621.654 332.221 620.876 337.062L603.857 442.656C603.078 447.497 599.389 449.884 595.628 447.992Z" fill="#223D69"/>
<path d="M596.758 447.45L459.96 378.529C456.198 376.628 453.774 371.168 454.552 366.327L471.57 260.724C471.962 258.272 473.11 256.461 474.622 255.502C472.553 256.16 470.934 258.231 470.44 261.256L453.431 366.868C452.652 371.709 455.069 377.178 458.839 379.07L595.637 447.991C597.499 448.929 599.337 448.816 600.814 447.877C599.568 448.272 598.166 448.163 596.758 447.45Z" fill="#5793CE"/>
<path d="M601.266 459.011L581.871 457.565L453.53 392.871C449.416 390.8 442.471 391.482 438.02 394.399L352.849 450.214L341.118 449.341L341.493 455.944L341.502 455.943C341.516 457.472 342.461 458.894 344.406 459.873L489.859 533.19C493.973 535.26 500.918 534.578 505.369 531.662L598.132 470.87C600.631 469.225 601.814 467.232 601.639 465.424L601.275 459.01L601.266 459.011Z" fill="#173D7A"/>
<path d="M505.318 418.973L496.202 414.378L399.131 419.887L352.84 450.215L341.109 449.342L341.484 455.944L341.493 455.944C341.507 457.473 342.452 458.895 344.397 459.874L489.85 533.19C492.028 534.291 494.988 534.608 497.956 534.242L505.318 418.973Z" fill="#396CAA"/>
<path d="M346.324 449.73L341.118 449.341L341.493 455.944L341.502 455.943C341.516 457.472 342.461 458.895 344.406 459.873L346.973 461.167L346.324 449.73Z" fill="#5793CE"/>
<path d="M491.314 533.773C495.172 534.994 500.555 534.374 504.473 532.207L503.637 517.478L490.432 518.227L491.314 533.773Z" fill="#274F89"/>
<path d="M489.485 526.596L344.032 453.271C339.918 451.2 340.193 447.153 344.635 444.237L437.399 383.446C441.85 380.529 448.795 379.847 452.908 381.917L598.361 455.234C602.474 457.304 602.2 461.352 597.758 464.268L504.994 525.059C500.543 527.985 493.598 528.667 489.485 526.596Z" fill="#D4ECFF"/>
<path d="M597.612 461.864L504.849 522.656C500.397 525.572 493.452 526.254 489.339 524.184L343.895 450.858C342.542 450.178 341.682 449.282 341.265 448.289C340.753 450.208 341.651 452.074 344.032 453.271L489.485 526.587C493.598 528.658 500.543 527.976 504.994 525.059L597.757 464.268C600.751 462.307 601.844 459.842 600.999 457.802C600.611 459.201 599.486 460.633 597.612 461.864Z" fill="white"/>
<path d="M402.401 422.96L395.823 419.643C395.295 419.376 395.329 418.861 395.902 418.487L403.173 413.718C403.745 413.344 404.631 413.258 405.168 413.524L411.746 416.841C412.274 417.108 412.241 417.622 411.668 417.997L404.396 422.756C403.824 423.131 402.929 423.218 402.401 422.96Z" fill="#5793CE"/>
<path d="M412.564 428.08L405.986 424.763C405.458 424.496 405.492 423.981 406.065 423.607L413.336 418.838C413.908 418.464 414.794 418.377 415.332 418.644L421.909 421.96C422.438 422.227 422.404 422.742 421.831 423.117L414.56 427.885C413.987 428.26 413.092 428.347 412.564 428.08Z" fill="#5793CE"/>
<path d="M422.727 433.199L416.149 429.883C415.621 429.616 415.655 429.101 416.228 428.727L423.499 423.958C424.071 423.584 424.957 423.497 425.494 423.764L432.072 427.08C432.6 427.347 432.567 427.862 431.994 428.237L424.723 433.005C424.15 433.38 423.255 433.466 422.727 433.199Z" fill="#5793CE"/>
<path d="M436.078 427.735L429.5 424.419C428.972 424.152 429.006 423.637 429.579 423.262L435.687 419.262C436.26 418.887 437.146 418.801 437.683 419.067L444.261 422.384C444.789 422.651 444.755 423.166 444.183 423.54L438.074 427.541C437.492 427.916 436.606 428.002 436.078 427.735Z" fill="#5793CE"/>
<path d="M446.242 432.864L439.664 429.547C439.136 429.28 439.17 428.765 439.742 428.391L445.851 424.391C446.424 424.016 447.31 423.93 447.847 424.196L454.425 427.513C454.953 427.78 454.919 428.295 454.346 428.669L448.238 432.67C447.655 433.036 446.769 433.122 446.242 432.864Z" fill="#5793CE"/>
<path d="M456.405 437.984L449.827 434.667C449.299 434.4 449.333 433.885 449.905 433.511L456.014 429.51C456.587 429.136 457.473 429.05 458.01 429.316L464.588 432.633C465.116 432.9 465.082 433.415 464.509 433.789L458.401 437.789C457.819 438.164 456.933 438.251 456.405 437.984Z" fill="#5793CE"/>
<path d="M466.568 443.104L459.99 439.787C459.462 439.52 459.496 439.005 460.068 438.631L466.177 434.63C466.75 434.256 467.636 434.17 468.173 434.436L474.751 437.753C475.279 438.02 475.245 438.534 474.672 438.909L468.564 442.909C467.982 443.284 467.096 443.371 466.568 443.104Z" fill="#5793CE"/>
<path d="M476.731 448.233L470.153 444.916C469.625 444.649 469.659 444.134 470.232 443.76L476.34 439.759C476.913 439.385 477.799 439.298 478.336 439.565L484.914 442.881C485.442 443.148 485.408 443.663 484.836 444.038L478.727 448.038C478.145 448.404 477.259 448.5 476.731 448.233Z" fill="#5793CE"/>
<path d="M486.894 453.352L480.317 450.036C479.788 449.769 479.822 449.254 480.395 448.88L486.504 444.879C487.076 444.505 487.962 444.418 488.499 444.685L495.077 448.001C495.605 448.268 495.572 448.783 494.999 449.158L488.89 453.158C488.309 453.533 487.423 453.619 486.894 453.352Z" fill="#5793CE"/>
<path d="M497.057 458.472L490.479 455.156C489.951 454.889 489.985 454.374 490.558 454L496.666 449.999C497.239 449.625 498.125 449.538 498.662 449.805L505.24 453.121C505.768 453.388 505.734 453.903 505.162 454.278L499.053 458.278C498.471 458.653 497.585 458.739 497.057 458.472Z" fill="#5793CE"/>
<path d="M507.221 463.601L500.643 460.285C500.115 460.018 500.149 459.503 500.721 459.128L506.83 455.128C507.403 454.753 508.289 454.667 508.826 454.934L515.404 458.25C515.932 458.517 515.898 459.032 515.325 459.407L509.217 463.407C508.635 463.782 507.749 463.868 507.221 463.601Z" fill="#5793CE"/>
<path d="M517.384 468.721L510.806 465.405C510.278 465.138 510.312 464.623 510.884 464.248L516.993 460.248C517.566 459.873 518.452 459.787 518.989 460.054L525.567 463.37C526.095 463.637 526.061 464.152 525.488 464.526L519.38 468.527C518.798 468.902 517.912 468.988 517.384 468.721Z" fill="#5793CE"/>
<path d="M527.547 473.841L520.969 470.525C520.441 470.258 520.475 469.743 521.047 469.368L527.156 465.368C527.729 464.993 528.615 464.907 529.152 465.173L535.73 468.49C536.258 468.757 536.224 469.272 535.651 469.646L529.543 473.647C528.961 474.022 528.075 474.108 527.547 473.841Z" fill="#5793CE"/>
<path d="M450.422 424.221L443.844 420.905C443.316 420.638 443.35 420.123 443.922 419.748L450.031 415.748C450.604 415.373 451.49 415.287 452.027 415.554L458.605 418.87C459.133 419.137 459.099 419.652 458.526 420.026L452.418 424.027C451.845 424.401 450.95 424.488 450.422 424.221Z" fill="#5793CE"/>
<path d="M440.111 419.029L433.533 415.712C433.005 415.445 433.039 414.93 433.611 414.556L439.72 410.555C440.293 410.181 441.179 410.095 441.716 410.361L448.294 413.678C448.822 413.945 448.788 414.459 448.215 414.834L442.107 418.834C441.525 419.2 440.639 419.287 440.111 419.029Z" fill="#5793CE"/>
<path d="M429.772 413.82L415.597 406.678C415.069 406.411 415.103 405.896 415.676 405.521L421.784 401.521C422.357 401.146 423.243 401.06 423.78 401.326L437.955 408.469C438.483 408.736 438.449 409.25 437.876 409.625L431.768 413.625C431.194 413.991 430.3 414.087 429.772 413.82Z" fill="#5793CE"/>
<path d="M436.37 406.399L424.864 400.599C424.336 400.332 424.369 399.817 424.942 399.443L431.051 395.442C431.623 395.068 432.509 394.981 433.046 395.248L444.553 401.048C445.081 401.315 445.047 401.829 444.475 402.204L438.366 406.204C437.784 406.57 436.898 406.666 436.37 406.399Z" fill="#5793CE"/>
<path d="M460.586 429.35L454.008 426.034C453.48 425.766 453.513 425.252 454.086 424.877L460.195 420.877C460.767 420.502 461.653 420.416 462.191 420.682L468.768 423.999C469.297 424.266 469.263 424.781 468.69 425.155L462.581 429.156C462.009 429.53 461.114 429.617 460.586 429.35Z" fill="#5793CE"/>
<path d="M470.749 434.47L464.171 431.153C463.643 430.886 463.676 430.372 464.249 429.997L470.358 425.997C470.93 425.622 471.817 425.536 472.354 425.802L478.931 429.119C479.46 429.386 479.426 429.901 478.853 430.275L472.745 434.276C472.172 434.65 471.277 434.737 470.749 434.47Z" fill="#5793CE"/>
<path d="M480.911 439.59L474.334 436.273C473.806 436.006 473.839 435.491 474.412 435.117L480.521 431.116C481.093 430.742 481.979 430.656 482.516 430.922L489.094 434.239C489.622 434.506 489.589 435.021 489.016 435.395L482.907 439.396C482.335 439.77 481.44 439.857 480.911 439.59Z" fill="#5793CE"/>
<path d="M491.075 444.719L484.497 441.402C483.969 441.135 484.003 440.62 484.576 440.246L490.684 436.245C491.257 435.871 492.143 435.785 492.68 436.051L499.258 439.368C499.786 439.635 499.752 440.149 499.18 440.524L493.071 444.524C492.498 444.899 491.603 444.986 491.075 444.719Z" fill="#5793CE"/>
<path d="M501.238 449.839L494.66 446.522C494.132 446.255 494.166 445.74 494.739 445.366L500.847 441.365C501.42 440.991 502.306 440.904 502.843 441.171L509.421 444.487C509.949 444.754 509.915 445.269 509.343 445.644L503.234 449.644C502.661 450.019 501.766 450.106 501.238 449.839Z" fill="#5793CE"/>
<path d="M511.401 454.967L504.824 451.651C504.295 451.384 504.329 450.869 504.902 450.495L511.011 446.494C511.583 446.12 512.469 446.033 513.006 446.3L519.584 449.616C520.112 449.883 520.079 450.398 519.506 450.773L513.397 454.773C512.824 455.139 511.929 455.226 511.401 454.967Z" fill="#5793CE"/>
<path d="M521.565 460.087L514.987 456.771C514.459 456.504 514.492 455.989 515.065 455.614L521.174 451.614C521.746 451.24 522.632 451.153 523.17 451.42L529.747 454.736C530.276 455.003 530.242 455.518 529.669 455.893L523.56 459.893C522.988 460.268 522.093 460.354 521.565 460.087Z" fill="#5793CE"/>
<path d="M531.728 465.207L525.15 461.891C524.622 461.624 524.655 461.109 525.228 460.734L531.337 456.734C531.909 456.359 532.796 456.273 533.333 456.54L539.91 459.856C540.439 460.123 540.405 460.638 539.832 461.013L533.723 465.013C533.151 465.387 532.256 465.474 531.728 465.207Z" fill="#5793CE"/>
<path d="M541.891 470.336L535.313 467.02C534.785 466.753 534.819 466.238 535.391 465.863L541.5 461.863C542.073 461.488 542.959 461.402 543.496 461.669L550.074 464.985C550.602 465.252 550.568 465.767 549.995 466.141L543.887 470.142C543.314 470.507 542.419 470.603 541.891 470.336Z" fill="#5793CE"/>
<path d="M559.957 479.444L545.597 472.205C545.069 471.938 545.103 471.423 545.675 471.048L551.784 467.048C552.357 466.673 553.243 466.587 553.78 466.854L568.14 474.093C568.668 474.36 568.634 474.875 568.062 475.25L561.953 479.25C561.38 479.616 560.485 479.702 559.957 479.444Z" fill="#5793CE"/>
<path d="M578.49 467.287L566.372 461.18C565.844 460.913 565.878 460.398 566.451 460.024L572.559 456.023C573.132 455.649 574.018 455.563 574.555 455.829L586.673 461.936C587.201 462.203 587.167 462.718 586.595 463.092L580.486 467.093C579.913 467.467 579.018 467.554 578.49 467.287Z" fill="#5793CE"/>
<path d="M477.755 427.26L471.177 423.943C470.649 423.676 470.683 423.161 471.255 422.787L477.364 418.786C477.937 418.412 478.823 418.326 479.36 418.592L485.938 421.909C486.466 422.176 486.432 422.69 485.859 423.065L479.751 427.065C479.178 427.44 478.283 427.527 477.755 427.26Z" fill="#5793CE"/>
<path d="M467.342 422.01L460.764 418.693C460.236 418.426 460.269 417.912 460.842 417.537L466.951 413.537C467.523 413.162 468.41 413.076 468.947 413.342L475.525 416.659C476.053 416.926 476.019 417.441 475.446 417.815L469.338 421.816C468.755 422.182 467.87 422.277 467.342 422.01Z" fill="#5793CE"/>
<path d="M456.919 416.761L450.341 413.444C449.813 413.177 449.847 412.662 450.42 412.288L456.528 408.287C457.101 407.913 457.987 407.827 458.524 408.093L465.102 411.41C465.63 411.677 465.596 412.192 465.024 412.566L458.915 416.566C458.342 416.932 457.447 417.019 456.919 416.761Z" fill="#5793CE"/>
<path d="M446.505 411.502L439.927 408.186C439.399 407.919 439.433 407.404 440.006 407.029L446.114 403.029C446.687 402.654 447.573 402.568 448.11 402.835L454.688 406.151C455.216 406.418 455.182 406.933 454.61 407.307L448.501 411.308C447.928 411.682 447.033 411.769 446.505 411.502Z" fill="#5793CE"/>
<path d="M487.918 432.38L481.34 429.063C480.812 428.796 480.846 428.281 481.418 427.907L487.527 423.906C488.1 423.532 488.986 423.445 489.523 423.712L496.101 427.028C496.629 427.295 496.595 427.81 496.022 428.185L489.914 432.185C489.341 432.56 488.446 432.647 487.918 432.38Z" fill="#5793CE"/>
<path d="M498.081 437.508L491.504 434.192C490.975 433.925 491.009 433.41 491.582 433.036L497.691 429.035C498.263 428.661 499.149 428.574 499.686 428.841L506.264 432.157C506.792 432.424 506.759 432.939 506.186 433.314L500.077 437.314C499.504 437.68 498.609 437.766 498.081 437.508Z" fill="#5793CE"/>
<path d="M508.244 442.628L501.667 439.312C501.139 439.045 501.172 438.53 501.745 438.155L507.854 434.155C508.426 433.781 509.312 433.694 509.849 433.961L516.427 437.277C516.955 437.544 516.922 438.059 516.349 438.434L510.24 442.434C509.668 442.809 508.773 442.895 508.244 442.628Z" fill="#5793CE"/>
<path d="M518.407 447.748L511.829 444.432C511.301 444.165 511.335 443.65 511.908 443.275L518.016 439.275C518.589 438.9 519.475 438.814 520.012 439.081L526.59 442.397C527.118 442.664 527.085 443.179 526.512 443.554L520.403 447.554C519.83 447.928 518.935 448.015 518.407 447.748Z" fill="#5793CE"/>
<path d="M528.571 452.877L521.993 449.561C521.465 449.294 521.499 448.779 522.071 448.404L528.18 444.404C528.753 444.029 529.639 443.943 530.176 444.21L536.754 447.526C537.282 447.793 537.248 448.308 536.675 448.682L530.567 452.683C529.994 453.048 529.099 453.144 528.571 452.877Z" fill="#5793CE"/>
<path d="M538.734 457.997L532.156 454.681C531.628 454.414 531.662 453.899 532.235 453.524L538.343 449.524C538.916 449.149 539.802 449.063 540.339 449.329L546.917 452.646C547.445 452.913 547.411 453.428 546.838 453.802L540.73 457.803C540.157 458.177 539.262 458.264 538.734 457.997Z" fill="#5793CE"/>
<path d="M548.897 463.117L542.319 459.8C541.791 459.533 541.825 459.019 542.398 458.644L548.506 454.644C549.079 454.269 549.965 454.183 550.502 454.449L557.08 457.766C557.608 458.033 557.574 458.548 557.002 458.922L550.893 462.923C550.32 463.297 549.425 463.384 548.897 463.117Z" fill="#5793CE"/>
<path d="M559.06 468.246L552.483 464.929C551.954 464.662 551.988 464.147 552.561 463.773L558.67 459.772C559.242 459.398 560.128 459.312 560.665 459.578L567.243 462.895C567.771 463.162 567.738 463.677 567.165 464.051L561.056 468.052C560.483 468.417 559.589 468.513 559.06 468.246Z" fill="#5793CE"/>
<path d="M569.223 473.366L562.646 470.049C562.118 469.782 562.151 469.267 562.724 468.893L568.833 464.892C569.405 464.518 570.291 464.432 570.828 464.698L577.406 468.015C577.934 468.282 577.901 468.797 577.328 469.171L571.219 473.171C570.647 473.546 569.752 473.633 569.223 473.366Z" fill="#5793CE"/>
<path d="M471.772 413.497L465.194 410.181C464.666 409.913 464.7 409.399 465.273 409.024L471.381 405.024C471.954 404.649 472.84 404.563 473.377 404.829L479.955 408.146C480.483 408.413 480.449 408.928 479.877 409.302L473.768 413.303C473.195 413.677 472.3 413.764 471.772 413.497Z" fill="#5793CE"/>
<path d="M461.664 408.401L455.087 405.084C454.558 404.817 454.592 404.303 455.165 403.928L461.274 399.928C461.846 399.553 462.732 399.467 463.269 399.733L469.847 403.05C470.375 403.317 470.342 403.832 469.769 404.206L463.66 408.207C463.079 408.582 462.193 408.668 461.664 408.401Z" fill="#5793CE"/>
<path d="M451.548 403.305L444.97 399.989C444.442 399.722 444.476 399.207 445.048 398.833L451.157 394.832C451.73 394.458 452.616 394.371 453.153 394.638L459.731 397.954C460.259 398.221 460.225 398.736 459.652 399.111L453.544 403.111C452.971 403.486 452.076 403.572 451.548 403.305Z" fill="#5793CE"/>
<path d="M441.44 398.209L434.862 394.893C434.334 394.626 434.368 394.111 434.941 393.736L441.049 389.736C441.622 389.362 442.508 389.275 443.045 389.542L449.623 392.858C450.151 393.125 450.117 393.64 449.545 394.015L443.436 398.015C442.854 398.381 441.968 398.476 441.44 398.209Z" fill="#5793CE"/>
<path d="M451.175 391.825L444.597 388.509C444.069 388.242 444.103 387.727 444.676 387.352L446.698 386.032C447.271 385.657 448.157 385.571 448.694 385.837L455.272 389.154C455.8 389.421 455.766 389.936 455.193 390.31L453.171 391.631C452.598 391.996 451.703 392.083 451.175 391.825Z" fill="#5793CE"/>
<path d="M464.377 398.474L457.799 395.157C457.271 394.89 457.305 394.375 457.878 394.001L459.899 392.68C460.472 392.306 461.358 392.219 461.895 392.486L468.473 395.802C469.001 396.069 468.968 396.584 468.395 396.959L466.373 398.279C465.791 398.654 464.905 398.741 464.377 398.474Z" fill="#5793CE"/>
<path d="M474.448 403.554L467.87 400.237C467.342 399.97 467.375 399.455 467.948 399.081L469.97 397.76C470.543 397.386 471.429 397.299 471.966 397.566L478.544 400.882C479.072 401.149 479.038 401.664 478.465 402.039L476.443 403.359C475.861 403.725 474.975 403.812 474.448 403.554Z" fill="#5793CE"/>
<path d="M484.518 408.625L477.94 405.308C477.412 405.041 477.446 404.526 478.018 404.152L480.04 402.831C480.613 402.457 481.499 402.371 482.036 402.637L488.614 405.954C489.142 406.221 489.108 406.735 488.536 407.11L486.514 408.431C485.932 408.806 485.046 408.892 484.518 408.625Z" fill="#5793CE"/>
<path d="M494.589 413.705L488.011 410.389C487.483 410.122 487.516 409.607 488.089 409.232L490.111 407.911C490.684 407.537 491.57 407.451 492.107 407.717L498.685 411.034C499.213 411.301 499.179 411.816 498.606 412.19L496.585 413.511C496.003 413.886 495.117 413.972 494.589 413.705Z" fill="#5793CE"/>
<path d="M550.806 442.04L544.228 438.723C543.7 438.456 543.734 437.941 544.306 437.567L546.328 436.246C546.901 435.872 547.787 435.786 548.324 436.052L554.902 439.368C555.43 439.636 555.396 440.15 554.824 440.525L552.802 441.846C552.229 442.22 551.334 442.307 550.806 442.04Z" fill="#5793CE"/>
<path d="M560.876 447.12L554.298 443.803C553.77 443.536 553.804 443.022 554.377 442.647L556.399 441.326C556.971 440.952 557.857 440.866 558.395 441.132L564.972 444.449C565.501 444.716 565.467 445.231 564.894 445.605L562.872 446.926C562.299 447.3 561.404 447.387 560.876 447.12Z" fill="#5793CE"/>
<path d="M570.947 452.2L564.369 448.884C563.841 448.617 563.875 448.102 564.448 447.727L566.47 446.407C567.042 446.032 567.928 445.946 568.465 446.212L575.043 449.529C575.571 449.796 575.538 450.311 574.965 450.685L572.943 452.006C572.37 452.371 571.475 452.467 570.947 452.2Z" fill="#5793CE"/>
<path d="M581.017 457.271L574.44 453.955C573.911 453.688 573.945 453.173 574.518 452.798L576.54 451.478C577.113 451.103 577.999 451.017 578.536 451.283L585.114 454.6C585.642 454.867 585.608 455.382 585.035 455.756L583.013 457.077C582.441 457.451 581.546 457.538 581.017 457.271Z" fill="#5793CE"/>
<path d="M481.936 418.626L475.358 415.309C474.83 415.042 474.863 414.527 475.436 414.153L481.545 410.153C482.117 409.778 483.004 409.692 483.541 409.958L490.118 413.275C490.647 413.542 490.613 414.057 490.04 414.431L483.932 418.432C483.358 418.797 482.463 418.884 481.936 418.626Z" fill="#5793CE"/>
<path d="M492.099 423.746L485.521 420.429C484.993 420.162 485.027 419.647 485.599 419.273L491.708 415.272C492.281 414.898 493.167 414.812 493.704 415.078L500.282 418.395C500.81 418.662 500.776 419.177 500.203 419.551L494.095 423.552C493.522 423.926 492.627 424.013 492.099 423.746Z" fill="#5793CE"/>
<path d="M502.262 428.866L495.684 425.549C495.156 425.282 495.189 424.767 495.762 424.393L501.871 420.392C502.443 420.018 503.329 419.932 503.867 420.198L510.444 423.515C510.973 423.782 510.939 424.296 510.366 424.671L504.257 428.671C503.685 429.046 502.79 429.133 502.262 428.866Z" fill="#5793CE"/>
<path d="M512.425 433.995L505.847 430.678C505.319 430.411 505.353 429.896 505.926 429.522L512.034 425.521C512.607 425.147 513.493 425.06 514.03 425.327L520.608 428.643C521.136 428.91 521.102 429.425 520.53 429.8L514.421 433.8C513.848 434.166 512.953 434.262 512.425 433.995Z" fill="#5793CE"/>
<path d="M522.588 439.114L516.01 435.798C515.482 435.531 515.516 435.016 516.089 434.642L522.197 430.641C522.77 430.267 523.656 430.18 524.193 430.447L530.771 433.763C531.299 434.03 531.265 434.545 530.693 434.92L524.584 438.92C524.011 439.295 523.116 439.381 522.588 439.114Z" fill="#5793CE"/>
<path d="M532.751 444.234L526.173 440.918C525.645 440.651 525.679 440.136 526.252 439.762L532.36 435.761C532.933 435.387 533.819 435.3 534.356 435.567L540.934 438.883C541.462 439.15 541.428 439.665 540.856 440.04L534.747 444.04C534.174 444.415 533.279 444.501 532.751 444.234Z" fill="#5793CE"/>
<path d="M542.915 449.363L536.337 446.047C535.809 445.78 535.842 445.265 536.415 444.89L542.524 440.89C543.096 440.515 543.983 440.429 544.52 440.696L551.097 444.012C551.626 444.279 551.592 444.794 551.019 445.169L544.911 449.169C544.338 449.543 543.443 449.63 542.915 449.363Z" fill="#5793CE"/>
<path d="M553.078 454.483L546.5 451.167C545.972 450.9 546.006 450.385 546.578 450.01L552.687 446.01C553.26 445.635 554.146 445.549 554.683 445.816L561.261 449.132C561.789 449.399 561.755 449.914 561.182 450.288L555.074 454.289C554.501 454.663 553.606 454.75 553.078 454.483Z" fill="#5793CE"/>
<path d="M563.241 459.603L556.663 456.287C556.135 456.02 556.169 455.505 556.741 455.13L562.85 451.13C563.423 450.755 564.309 450.669 564.846 450.935L571.424 454.252C571.952 454.519 571.918 455.034 571.345 455.408L565.237 459.409C564.664 459.783 563.778 459.87 563.241 459.603Z" fill="#5793CE"/>
<path d="M425.721 422.518L406.339 412.747C405.811 412.48 405.845 411.965 406.418 411.59L412.526 407.59C413.099 407.215 413.985 407.129 414.522 407.396L433.904 417.167C434.432 417.434 434.398 417.949 433.825 418.323L427.717 422.324C427.135 422.699 426.249 422.785 425.721 422.518Z" fill="#5793CE"/>
<path d="M550.579 485.457L531.197 475.686C530.669 475.419 530.703 474.904 531.276 474.529L537.384 470.529C537.957 470.154 538.843 470.068 539.38 470.335L558.762 480.106C559.29 480.373 559.256 480.888 558.683 481.263L552.575 485.263C551.993 485.638 551.107 485.724 550.579 485.457Z" fill="#5793CE"/>
<path d="M510.647 477.518L504.07 474.201C503.542 473.934 503.575 473.42 504.148 473.045L511.419 468.277C511.992 467.902 512.878 467.816 513.415 468.082L519.993 471.399C520.521 471.666 520.487 472.181 519.914 472.555L512.643 477.324C512.062 477.699 511.176 477.785 510.647 477.518Z" fill="#5793CE"/>
<path d="M436.837 440.309L426.312 435.003C425.784 434.736 425.818 434.221 426.391 433.846L433.662 429.078C434.234 428.704 435.12 428.617 435.657 428.884L446.182 434.19C446.71 434.457 446.676 434.972 446.104 435.347L438.833 440.115C438.26 440.489 437.365 440.576 436.837 440.309Z" fill="#5793CE"/>
<path d="M500.855 472.584L490.33 467.278C489.802 467.011 489.836 466.496 490.409 466.121L497.68 461.353C498.252 460.978 499.138 460.892 499.676 461.159L510.2 466.465C510.728 466.732 510.694 467.247 510.122 467.621L502.851 472.39C502.269 472.756 501.383 472.851 500.855 472.584Z" fill="#5793CE"/>
<path d="M451.503 447.702L440.978 442.396C440.45 442.129 440.484 441.614 441.056 441.24L448.327 436.471C448.9 436.097 449.786 436.011 450.323 436.277L460.848 441.583C461.376 441.85 461.342 442.365 460.769 442.74L453.499 447.508C452.917 447.883 452.031 447.969 451.503 447.702Z" fill="#5793CE"/>
<path d="M450.388 436.309L496.146 459.379C496.711 459.662 496.74 460.182 496.211 460.527L488.801 465.385C488.272 465.73 487.375 465.781 486.809 465.498L441.052 442.428L450.388 436.309Z" fill="#5793CE"/>
<path d="M538.727 486.256L546.055 489.953C546.49 490.171 546.461 490.596 545.992 490.901L543.016 492.852C542.547 493.158 541.814 493.235 541.387 493.016L534.059 489.32C533.624 489.101 533.653 488.677 534.122 488.371L537.098 486.42C537.567 486.115 538.3 486.037 538.727 486.256Z" fill="#5793CE"/>
<path d="M528.481 481.096L535.809 484.793C536.244 485.011 536.214 485.435 535.746 485.741L532.77 487.692C532.301 487.997 531.567 488.075 531.141 487.856L523.813 484.159C523.377 483.941 523.407 483.516 523.876 483.211L526.852 481.26C527.32 480.946 528.054 480.877 528.481 481.096Z" fill="#5793CE"/>
<path d="M518.317 475.967L525.645 479.664C526.081 479.882 526.051 480.307 525.582 480.612L522.606 482.563C522.138 482.869 521.404 482.946 520.978 482.727L513.649 479.031C513.214 478.812 513.244 478.388 513.712 478.082L516.688 476.131C517.157 475.826 517.891 475.748 518.317 475.967Z" fill="#5793CE"/>
<path d="M533.739 477.647L541.067 481.344C541.502 481.563 541.472 481.987 541.004 482.293L538.028 484.244C537.559 484.549 536.826 484.627 536.399 484.408L529.071 480.711C528.635 480.493 528.665 480.068 529.134 479.763L532.11 477.812C532.578 477.497 533.303 477.429 533.739 477.647Z" fill="#5793CE"/>
<path d="M566.325 364.573L511.572 336.983L512.059 333.5L566.811 361.09L566.325 364.573Z" fill="#D4ECFF"/>
<path d="M547.665 371.473L509.448 352.205L509.935 348.722L548.151 367.981L547.665 371.473Z" fill="#D4ECFF"/>
<path d="M543.575 361.257L510.51 344.594L510.997 341.111L544.062 357.773L543.575 361.257Z" fill="white"/>
<path d="M565.254 372.185L548.726 363.853L549.213 360.37L565.74 368.701L565.254 372.185Z" fill="#F16A51"/>
<path d="M504.223 307.234L487.695 298.903L488.182 295.419L504.71 303.751L504.223 307.234Z" fill="#D4ECFF"/>
<path d="M502.947 315.343L486.41 307.012L486.896 303.529L503.433 311.86L502.947 315.343Z" fill="white"/>
<path d="M587.806 421.968L571.279 413.636L571.764 410.144L588.293 418.485L587.806 421.968Z" fill="#D4ECFF"/>
<path d="M500.375 331.553L483.847 323.222L484.333 319.738L500.861 328.07L500.375 331.553Z" fill="#D4ECFF"/>
<path d="M535.097 332.076C534.649 333.217 533.389 333.684 532.268 333.127C531.157 332.569 530.61 331.187 531.058 330.046C531.507 328.905 532.767 328.437 533.888 328.994C535.008 329.552 535.546 330.934 535.097 332.076Z" fill="#F16A51"/>
<path d="M542.222 335.667C541.774 336.808 540.513 337.276 539.393 336.719C538.281 336.161 537.735 334.779 538.183 333.637C538.631 332.496 539.891 332.028 541.012 332.586C542.124 333.144 542.67 334.526 542.222 335.667Z" fill="white"/>
<path d="M549.337 339.25C548.889 340.391 547.628 340.859 546.508 340.302C545.396 339.744 544.85 338.362 545.298 337.22C545.746 336.079 547.006 335.611 548.127 336.169C549.248 336.735 549.785 338.109 549.337 339.25Z" fill="#D4ECFF"/>
<path d="M556.461 342.841C556.013 343.983 554.753 344.45 553.632 343.893C552.52 343.335 551.974 341.953 552.422 340.812C552.87 339.67 554.131 339.203 555.251 339.76C556.363 340.318 556.909 341.7 556.461 342.841Z" fill="#F16A51"/>
<path d="M375.134 501.801C375.134 501.801 371.674 500.296 369.754 502.934C367.834 505.581 365.221 511.705 365.351 515.738C365.49 519.771 368.749 519.316 370.65 518.254C372.543 517.193 377.77 508.608 378.028 506.964C378.277 505.33 377.409 503.183 376.837 502.784C376.257 502.394 375.134 501.801 375.134 501.801Z" fill="#C361F0"/>
<path d="M375.824 500.952L376.174 504.423C376.252 505.166 375.915 505.887 375.29 506.292C374.726 506.657 373.88 506.966 372.721 506.842C370.168 506.582 369.893 505.869 369.517 502.398C369.139 498.919 375.824 500.952 375.824 500.952Z" fill="#D4ECFF"/>
<path d="M362.437 495.799C362.437 495.799 358.977 494.294 357.057 496.932C355.137 499.579 352.524 505.703 352.654 509.736C352.793 513.769 356.052 513.314 357.953 512.252C359.846 511.191 365.073 502.606 365.331 500.962C365.589 499.319 364.712 497.181 364.14 496.782C363.56 496.392 362.437 495.799 362.437 495.799Z" fill="#C361F0"/>
<path d="M363.127 494.95L363.477 498.421C363.555 499.164 363.218 499.885 362.593 500.29C362.029 500.655 361.182 500.964 360.024 500.84C357.471 500.58 357.196 499.867 356.82 496.396C356.442 492.917 363.127 494.95 363.127 494.95Z" fill="#D4ECFF"/>
<path d="M389.512 429.268C387.597 413.123 372.101 432.65 372.101 432.65L361.41 444.389L351.846 456.172C349.979 458.474 349.222 461.478 349.774 464.389L355.684 495.57C355.978 497.11 357.37 498.174 358.931 498.077C359.37 498.052 359.879 497.978 360.448 497.855C364.094 497.073 363.626 493.589 363.626 493.589L361.205 464.253L381.885 450.129C381.885 450.12 391.426 445.403 389.512 429.268Z" fill="#173D7A"/>
<path d="M402.17 434.741C400.255 418.597 384.759 438.123 384.759 438.123L374.068 449.862L364.504 461.645C362.637 463.947 361.88 466.951 362.432 469.862L368.342 501.043C368.636 502.583 370.028 503.647 371.589 503.55C372.028 503.525 372.537 503.451 373.106 503.329C376.751 502.546 376.284 499.063 376.284 499.063L373.929 470.569L394.543 455.603C394.552 455.593 404.084 450.876 402.17 434.741Z" fill="#173D7A"/>
<path d="M389.431 383.294C402.268 387.785 402.437 395.209 402.437 395.209C402.437 395.209 401.522 422.538 403.395 440.638C404.176 448.207 363.536 451.099 368.451 430.499C374.246 406.222 370.466 387.043 373.656 383.937C376.837 380.85 386.108 382.133 389.431 383.294Z" fill="#C361F0"/>
<path d="M393.841 389.64C393.331 392.225 390.07 393.76 386.557 393.06C383.044 392.368 380.616 389.707 381.126 387.122C381.637 384.537 384.897 383.002 388.411 383.703C391.924 384.403 394.352 387.055 393.841 389.64Z" fill="#FFC2B0"/>
<path d="M388.751 393.817C387.997 393.86 387.22 393.805 386.447 393.651C384.626 393.286 383.011 392.424 381.898 391.209C380.737 389.943 380.257 388.449 380.544 387.011C380.831 385.573 381.843 384.373 383.395 383.645C384.885 382.949 386.71 382.755 388.531 383.12C390.351 383.485 391.966 384.347 393.079 385.562C394.24 386.828 394.721 388.321 394.433 389.76C394.146 391.198 393.134 392.398 391.582 393.125C390.723 393.525 389.765 393.759 388.751 393.817ZM386.285 384.147C385.424 384.196 384.616 384.395 383.897 384.724C382.696 385.287 381.928 386.177 381.718 387.241C381.508 388.297 381.887 389.419 382.779 390.394C383.719 391.421 385.102 392.161 386.676 392.468C388.251 392.783 389.808 392.623 391.07 392.029C392.271 391.466 393.04 390.577 393.249 389.512C393.459 388.456 393.081 387.335 392.188 386.359C391.248 385.333 389.865 384.592 388.291 384.286C387.618 384.162 386.94 384.11 386.285 384.147Z" fill="white"/>
<path d="M384.367 383.014C384.367 383.014 384.503 383.511 384.513 387.497C384.512 388.748 388.956 389.666 390.022 388.471C391.088 387.277 390.573 386.127 390.601 381.86C390.629 377.592 384.367 383.014 384.367 383.014Z" fill="#FFC2B0"/>
<path d="M390.61 381.868C390.61 381.868 389.758 385.876 384.533 387.685L384.41 384.092L390.61 381.868Z" fill="#EA9C92"/>
<path d="M393.406 371.657C395.036 376.748 392.231 382.19 387.14 383.82C382.048 385.45 376.607 382.645 374.977 377.554C373.347 372.462 376.152 367.021 381.243 365.391C386.334 363.761 391.776 366.566 393.406 371.657Z" fill="#FFC2B0"/>
<path d="M386.432 374.834C386.432 374.834 381.241 377.414 377.565 377.65C373.888 377.885 374.521 374.754 374.521 374.754L385.357 372.555L386.432 374.834Z" fill="#EA9C92"/>
<path d="M376.364 375.999C376.364 375.999 380.882 373.772 384.992 374.357C385.953 374.492 386.87 374.953 387.533 375.68C387.744 375.92 388.017 376.13 388.308 376.176C389.034 376.297 390.049 373.242 391.444 373.091C392.84 372.94 393.829 373.883 392.785 375.787C391.741 377.691 392.244 379.723 392.79 379.989C393.336 380.255 399.616 375.318 394.118 365.812C388.619 356.297 375.443 362.615 373.6 364.708C373.6 364.708 371.647 366.619 369.879 365.118C369.888 365.117 368.81 379.271 376.364 375.999Z" fill="#D4ECFF"/>
<path d="M396.532 415.478L396.949 422.825C396.997 423.668 396.683 424.487 396.097 425.096L381.789 439.713L383.651 442.236L403.671 427.42C404.566 426.694 405.108 425.62 405.16 424.474L405.803 410.758L396.532 415.478Z" fill="#FFC2B0"/>
<path d="M401.17 391.6C401.17 391.6 406.136 398.23 408.869 416.254C408.869 416.254 401.19 419.227 396.668 418.044C392.156 416.86 401.17 391.6 401.17 391.6Z" fill="#C361F0"/>
<path d="M394.856 400.697C394.856 400.697 393.606 410.388 393.763 414.906C393.807 416.146 394.624 417.224 395.814 417.58L394.856 400.697Z" fill="#B250DE"/>
<path d="M393.643 448.616L390.281 448.366L368.046 437.155C367.333 436.799 366.133 436.912 365.361 437.415L350.602 447.09L348.568 446.936L348.682 448.945C348.688 449.206 348.846 449.458 349.189 449.627L374.388 462.326C375.101 462.682 376.301 462.569 377.073 462.066L393.142 451.533C393.576 451.248 393.782 450.903 393.746 450.59L393.634 448.617L393.643 448.616Z" fill="#5793CE"/>
<path d="M377.023 441.676L375.439 440.884L358.628 441.838L350.61 447.09L348.577 446.935L348.691 448.944C348.697 449.205 348.855 449.457 349.198 449.627L374.397 462.326C374.776 462.511 375.284 462.572 375.802 462.507L377.023 441.676Z" fill="#396CAA"/>
<path d="M349.48 447.001L348.577 446.935L348.691 448.944C348.697 449.205 348.855 449.457 349.198 449.627L349.642 449.853L349.48 447.001Z" fill="#5793CE"/>
<path d="M374.646 462.429C375.315 462.643 376.245 462.536 376.925 462.155L376.731 458.737L374.444 458.867L374.646 462.429Z" fill="#5793CE"/>
<path d="M374.283 460.325L349.084 447.626C348.371 447.271 348.421 446.566 349.193 446.063L365.263 435.531C366.035 435.028 367.234 434.906 367.948 435.27L393.147 447.969C393.86 448.325 393.81 449.03 393.038 449.532L376.968 460.056C376.196 460.568 374.997 460.681 374.283 460.325Z" fill="white"/>
<path d="M373.75 458.214L352.793 447.65C352.2 447.35 352.239 446.772 352.881 446.349L361.496 440.838C362.138 440.415 363.141 440.322 363.734 440.621L384.69 451.185C385.283 451.484 385.244 452.063 384.602 452.486L375.978 457.997C375.336 458.412 374.343 458.513 373.75 458.214Z" fill="#D4ECFF"/>
<path d="M366.178 435.002L366.022 436.702C365.888 438.15 366.007 439.61 366.375 441.011L366.755 442.475C366.973 443.299 367.674 443.916 368.516 444.022C369.178 444.101 369.771 443.608 369.805 442.94L370.005 439.32C370.005 439.32 370.997 440.479 371.437 440.454C371.885 440.429 370.739 436.876 369.61 434.897C368.498 432.908 366.178 435.002 366.178 435.002Z" fill="#FFC2B0"/>
<path d="M372.93 407.782L370.605 413.116C370.056 414.38 369.764 415.737 369.761 417.105L369.627 434.896L366.178 435.011L363.479 415.194C363.399 414.578 363.391 413.966 363.464 413.35L364.676 403.157L372.93 407.782Z" fill="#FFC2B0"/>
<path d="M373.535 461.727L371.338 459.17L349.119 447.93C348.406 447.566 347.789 446.53 347.737 445.615L346.755 427.996L345.425 426.451L346.553 425.712C346.769 425.556 347.065 425.539 347.399 425.709L372.583 438.445C373.296 438.81 373.913 439.845 373.965 440.76L375.035 459.941C375.065 460.461 374.906 460.83 374.636 460.989L373.535 461.727Z" fill="#173D7A"/>
<path d="M358.079 452.47L356.504 451.669L347.289 437.568L346.755 427.996L345.425 426.451L346.553 425.712C346.769 425.556 347.065 425.539 347.399 425.709L372.583 438.445C372.963 438.639 373.308 439.016 373.559 439.47L358.079 452.47Z" fill="#396CAA"/>
<path d="M346.004 427.138L345.416 426.452L346.544 425.713C346.76 425.556 347.056 425.54 347.39 425.71L347.835 425.936L346.004 427.138Z" fill="#5793CE"/>
<path d="M372.807 438.594C373.37 439.003 373.84 439.823 373.946 440.591L371.638 442.098L370.386 440.181L372.807 438.594Z" fill="#274F89"/>
<path d="M371.454 439.184L346.271 426.448C345.557 426.084 345.026 426.546 345.078 427.461L346.148 446.641C346.201 447.565 346.817 448.601 347.53 448.956L372.714 461.692C373.427 462.057 373.959 461.595 373.907 460.68L372.837 441.499C372.785 440.584 372.168 439.549 371.454 439.184Z" fill="#5793CE"/>
<path d="M383.651 442.227L383.302 443.056C382.906 444.015 382.242 444.835 381.394 445.433L379.056 447.059C378.329 447.568 377.38 447.658 376.583 447.253C376.555 447.237 376.527 447.221 376.5 447.204C375.701 446.764 375.566 445.664 376.166 444.973L378.548 442.228C378.548 442.228 377.183 443.395 376.764 442.986C376.45 442.68 378.038 441.015 379.318 440.898C380.598 440.771 381.779 439.696 381.779 439.696L383.651 442.227Z" fill="#FFC2B0"/>
<path d="M373.906 383.896C373.906 383.896 365.203 394.514 361.979 403.994C361.979 403.994 365.479 409.528 373.366 411.33C381.262 413.132 373.906 383.896 373.906 383.896Z" fill="#C361F0"/>
<path d="M371.592 410.837L372.275 396.228L369.504 410.037C370.15 410.325 370.849 410.591 371.592 410.837Z" fill="#B250DE"/>
<path d="M380.733 381.466L378.201 380.925C378.201 380.925 379.5 382.733 381.258 383.11C383.026 383.486 383.211 382 383.211 382L380.733 381.466Z" fill="white"/>
<path d="M393.828 376.718C393.871 377.48 393.288 378.143 392.517 378.187C391.754 378.23 391.091 377.647 391.047 376.876C391.004 376.113 391.587 375.45 392.359 375.406C393.131 375.371 393.785 375.955 393.828 376.718Z" fill="white"/>
<path d="M450.949 493.775L408.008 472.13C406.758 471.499 406.841 470.27 408.195 469.383L432.463 453.472C433.817 452.585 435.92 452.376 437.17 453.007L480.111 474.652C481.362 475.283 481.279 476.512 479.925 477.399L455.657 493.31C454.312 494.196 452.2 494.397 450.949 493.775Z" fill="white"/>
<path opacity="0.5" d="M497.611 511.529L435.678 480.315C434.289 479.611 434.178 477.664 435.48 476.816L490.629 440.667L556.518 473.88C557.908 474.584 558.019 476.53 556.717 477.378L505.273 511.103C502.982 512.592 500.057 512.758 497.611 511.529Z" fill="#173D7A"/>
<path d="M490.487 416.584C490.271 412.78 487.501 411.38 484.316 413.46L430.066 448.955C429.189 449.527 428.526 450.842 428.586 451.892C428.645 452.941 429.405 453.321 430.281 452.75L484.532 417.255C485.972 416.309 487.223 416.94 487.32 418.662L487.667 424.933C488.749 424.8 489.843 424.738 490.947 424.693L490.487 416.584Z" fill="#F16A51"/>
<path d="M430.893 464.027L485.818 440.409C489.011 438.32 491.429 433.521 491.222 429.717L490.946 424.693C489.842 424.738 488.748 424.8 487.666 424.933L488.047 431.796C488.144 433.51 487.052 435.678 485.612 436.623L430.687 460.241C429.811 460.813 429.147 462.128 429.207 463.178C429.257 464.219 430.017 464.608 430.893 464.027Z" fill="#C84128"/>
<path d="M429.678 464.177L500.148 499.776L555.955 462.05L560.151 454.955L559.813 457.404L558.215 451.132L451.231 461.307L432.269 461.159L429.678 464.177Z" fill="#C54E38"/>
<path d="M431.271 452.135L431.73 460.533L499.829 494.934L501.16 486.831L431.271 452.135Z" fill="#FAD0C8"/>
<path d="M558.923 448.383L488.573 412.841L429.187 452.038L429.111 452.924L499.563 488.514L558.923 448.383Z" fill="#F16A51"/>
<path d="M538.354 469.853L553.827 459.444C555.119 458.417 556.069 456.446 555.987 454.84L555.924 453.584C555.867 452.57 555.407 451.93 554.742 451.779L524.215 471.105L499.329 486.449L499.838 494.943L538.354 469.853Z" fill="white"/>
<path d="M501.669 487.09L431.764 451.775L430.281 451.022L428.928 450.334C428.687 450.842 428.547 451.39 428.575 451.883C428.604 452.395 428.804 452.752 429.101 452.907L429.111 452.915L429.12 452.915L499.563 488.505L501.669 487.09Z" fill="#E26750"/>
<path d="M499.269 499.34L500.148 499.776L500.285 499.498L499.733 499.115L499.269 499.34Z" fill="white"/>
<path d="M498.646 488.054L499.554 488.506L499.302 488.043L498.646 488.054Z" fill="white"/>
<path d="M500.517 484.555L554.768 449.06C557.961 446.97 560.731 448.37 560.938 452.174L561.001 453.431C561.216 457.234 558.789 462.034 555.596 464.123L501.345 499.618C500.469 500.189 499.709 499.81 499.65 498.76C499.59 497.71 500.253 496.395 501.13 495.823L555.38 460.328C556.821 459.382 557.913 457.224 557.815 455.501L557.753 454.245C557.656 452.531 556.405 451.9 554.964 452.837L500.714 488.332C499.837 488.904 499.078 488.524 499.018 487.474C498.978 486.442 499.641 485.126 500.517 484.555Z" fill="#F16A51"/>
<path d="M499.659 498.768C499.599 497.719 500.263 496.403 501.139 495.832L555.39 460.337C556.83 459.391 557.922 457.232 557.825 455.51L557.762 454.253C557.699 453.132 557.139 452.471 556.362 452.416C556.632 452.734 556.802 453.192 556.836 453.784L556.898 455.04C556.995 456.754 555.903 458.922 554.463 459.867L500.213 495.362C499.336 495.934 498.673 497.25 498.732 498.299C498.777 499.088 499.224 499.504 499.821 499.407C499.721 499.233 499.673 499.02 499.659 498.768Z" fill="white"/>
<path d="M499.038 487.491C498.979 486.442 499.642 485.126 500.518 484.554L554.769 449.059C556.14 448.163 557.439 447.909 558.483 448.219C557.335 447.348 555.655 447.398 553.842 448.59L499.592 484.085C498.715 484.657 498.052 485.972 498.111 487.022C498.156 487.811 498.603 488.227 499.2 488.13C499.109 487.955 499.052 487.742 499.038 487.491Z" fill="white"/>
<path d="M471.118 454.149L501.055 434.559L528.776 448.564L498.839 468.145L471.118 454.149Z" fill="white"/>
</g>
<g clip-path="url(#clip1)">
<path opacity="0.5" d="M232.483 523.662L207.945 509.493C206.435 508.621 206.624 507.103 208.367 506.105L232.061 492.43C233.804 491.424 236.427 491.316 237.937 492.187L262.475 506.357C263.984 507.228 263.796 508.747 262.053 509.753L238.359 523.419C236.616 524.426 233.983 524.534 232.483 523.662Z" fill="#173D7A"/>
<path d="M263.481 492.763V484.299L244.496 484.29L237.937 480.498C236.427 479.626 233.804 479.734 232.06 480.741L225.942 484.272H206.938V492.978C206.893 493.562 207.226 494.137 207.945 494.551L232.483 508.72C233.992 509.591 236.616 509.484 238.359 508.477L262.053 494.802C263.05 494.209 263.535 493.463 263.481 492.763Z" fill="#396CAA"/>
<path d="M235.205 479.914C234.1 479.941 232.959 480.219 232.06 480.741L225.942 484.272H206.938V492.978C206.893 493.562 207.226 494.137 207.945 494.551L232.483 508.72C233.211 509.142 234.19 509.331 235.205 509.304V479.914Z" fill="#396CAA"/>
<path d="M209.086 484.272H206.938V492.978C206.893 493.562 207.226 494.137 207.945 494.551L209.086 495.206V484.272Z" fill="#5793CE"/>
<path d="M232.86 508.9C234.163 509.457 236.041 509.421 237.559 508.846V498.962H232.86V508.9Z" fill="#5793CE"/>
<path d="M232.482 500.04L207.944 485.87C206.435 484.999 206.623 483.48 208.367 482.483L232.06 468.799C233.803 467.793 236.427 467.685 237.936 468.556L262.474 482.726C263.984 483.597 263.795 485.116 262.052 486.113L238.359 499.797C236.615 500.795 233.983 500.911 232.482 500.04Z" fill="#D4ECFF"/>
<path d="M262.044 484.451L238.359 498.127C236.616 499.133 233.992 499.241 232.483 498.369L207.945 484.209C207.612 484.011 207.361 483.786 207.19 483.544C206.669 484.379 206.911 485.278 207.945 485.88L232.483 500.049C233.992 500.921 236.616 500.813 238.359 499.807L262.053 486.132C263.4 485.35 263.814 484.263 263.23 483.409C262.987 483.768 262.592 484.137 262.044 484.451Z" fill="white"/>
<path d="M254.451 495C254.451 495.629 254.011 496.401 253.463 496.716C252.915 497.03 252.475 496.779 252.475 496.141C252.475 495.512 252.915 494.739 253.463 494.425C254.011 494.11 254.451 494.371 254.451 495Z" fill="#D4ECFF"/>
<path d="M257.641 493.158C257.641 493.787 257.201 494.56 256.653 494.874C256.105 495.188 255.664 494.937 255.664 494.299C255.664 493.67 256.105 492.897 256.653 492.583C257.201 492.268 257.641 492.529 257.641 493.158Z" fill="#D4ECFF"/>
<path d="M260.831 491.316C260.831 491.945 260.39 492.718 259.842 493.032C259.294 493.347 258.854 493.095 258.854 492.457C258.854 491.828 259.294 491.055 259.842 490.741C260.39 490.426 260.831 490.687 260.831 491.316Z" fill="#D4ECFF"/>
<path d="M233.929 491.253L222.447 484.622C221.746 484.218 221.827 483.508 222.644 483.032L233.732 476.634C234.549 476.167 235.78 476.113 236.481 476.518L247.964 483.149C248.665 483.553 248.584 484.263 247.766 484.739L236.679 491.136C235.87 491.612 234.639 491.666 233.929 491.253Z" fill="#5793CE"/>
<path d="M235.035 485.709L233.444 484.793C233.345 484.739 233.363 484.64 233.471 484.577L235.008 483.688C235.125 483.625 235.286 483.616 235.385 483.67L236.975 484.586C237.074 484.64 237.056 484.739 236.948 484.802L235.412 485.691C235.295 485.754 235.125 485.763 235.035 485.709Z" fill="#D4ECFF"/>
<path d="M222.447 484.632L222.483 484.65C222.537 484.614 222.582 484.569 222.645 484.533L233.732 478.136C234.55 477.668 235.781 477.614 236.482 478.019L247.929 484.632C248.575 484.165 248.611 483.536 247.964 483.158L236.482 476.527C235.781 476.123 234.55 476.168 233.732 476.644L222.645 483.041C221.836 483.509 221.746 484.218 222.447 484.632Z" fill="#396CAA"/>
</g>
<g clip-path="url(#clip2)">
<path opacity="0.5" d="M498.545 632.855C508.602 631.741 516.233 626.132 515.59 620.328C514.947 614.523 506.273 610.72 496.217 611.834C486.16 612.948 478.529 618.557 479.172 624.362C479.815 630.167 488.489 633.969 498.545 632.855Z" fill="#173D7A"/>
<path d="M517.104 611.059L516.457 605.246L515.361 605.371C514.184 603.781 512.369 602.37 509.88 601.274C501.273 597.5 488.164 598.956 480.589 604.518C478.397 606.126 476.932 607.905 476.133 609.72L475.036 609.846L475.674 615.632C475.998 618.705 478.361 621.553 482.683 623.449C491.29 627.223 504.399 625.767 511.974 620.206C515.757 617.402 517.446 614.123 517.104 611.059Z" fill="#833DB8"/>
<path d="M497.071 619.495C508.508 618.228 517.187 611.847 516.455 605.243C515.724 598.639 505.859 594.312 494.421 595.579C482.984 596.846 474.305 603.227 475.037 609.831C475.768 616.435 485.633 620.762 497.071 619.495Z" fill="#B461F2"/>
<path d="M511.327 614.374C503.753 619.945 490.644 621.392 482.036 617.618C477.912 615.812 475.594 613.125 475.108 610.214C475.288 613.422 477.642 616.414 482.126 618.382C490.733 622.155 503.843 620.7 511.417 615.138C515.361 612.236 516.997 608.804 516.475 605.632C516.637 608.579 514.957 611.706 511.327 614.374Z" fill="white"/>
<path d="M486.205 612.604C485.836 612.443 485.603 612.191 485.576 611.903L484.731 604.113C484.668 603.52 485.45 602.945 486.483 602.829C487.517 602.712 488.397 603.107 488.46 603.7L489.161 610.16L507.652 605.785C508.649 605.551 509.674 605.812 509.952 606.369C510.231 606.926 509.647 607.573 508.658 607.806L487.939 612.703C487.4 612.829 486.816 612.82 486.349 612.658C486.304 612.649 486.25 612.622 486.205 612.604Z" fill="white"/>
</g>
<g clip-path="url(#clip3)">
<path opacity="0.5" d="M684.493 360.736L670.719 352.785L684.493 344.833L698.267 352.785L684.493 360.736Z" fill="#173D7A"/>
<path d="M698.267 342.685L684.493 350.637V334.734L698.267 326.782V342.685Z" fill="#173D7A"/>
<path d="M684.493 334.734L670.719 326.782L684.493 318.83L698.267 326.782L684.493 334.734Z" fill="#D4ECFF"/>
<path d="M684.493 350.637L670.719 342.685V326.782L684.493 334.734V350.637Z" fill="#5793CE"/>
<path d="M679.533 342.047L675.678 339.819V335.372L679.533 337.6V342.047Z" fill="white"/>
</g>
<g clip-path="url(#clip4)">
<path d="M438.596 277.823L402.349 261.097C401.633 260.766 400.942 260.811 400.376 261.133L400.384 261.115L396.453 263.423C396.453 263.423 398.041 263.819 398.974 264.058L396.3 289.584C396.084 291.661 397.214 293.948 398.824 294.685L433.47 310.673L433.158 313.67L437.123 311.35L437.104 311.342C437.779 310.929 438.264 310.118 438.379 308.997L441.112 282.934C441.336 280.847 440.207 278.569 438.596 277.823Z" fill="#8D46C1"/>
<path d="M431.071 313.743L394.824 297.018C393.213 296.272 392.084 293.993 392.3 291.916L395.033 265.853C395.25 263.776 396.73 262.694 398.341 263.44L434.588 280.165C436.199 280.911 437.328 283.19 437.112 285.267L434.378 311.33C434.171 313.406 432.682 314.489 431.071 313.743Z" fill="#B461F2"/>
<path d="M435.356 279.779L399.099 263.055C398.252 262.663 397.451 262.79 396.837 263.279C397.295 263.156 397.813 263.19 398.34 263.431L434.587 280.156C436.198 280.902 437.328 283.19 437.111 285.258L434.378 311.321C434.269 312.305 433.878 313.063 433.324 313.511C434.266 313.262 434.985 312.339 435.128 310.946L437.871 284.891C438.096 282.813 436.967 280.525 435.356 279.779Z" fill="white"/>
<path d="M408.674 286.856C408.514 288.368 407.289 289.085 405.942 288.459C404.595 287.833 403.625 286.108 403.784 284.596C403.944 283.084 405.169 282.367 406.516 282.993C407.863 283.619 408.833 285.344 408.674 286.856Z" fill="white"/>
<path d="M416.078 290.275C415.918 291.788 414.694 292.504 413.346 291.878C411.999 291.253 411.029 289.528 411.189 288.015C411.348 286.503 412.573 285.787 413.92 286.412C415.277 287.037 416.237 288.763 416.078 290.275Z" fill="white"/>
<path d="M423.491 293.694C423.332 295.206 422.107 295.923 420.759 295.297C419.412 294.671 418.442 292.946 418.602 291.434C418.761 289.922 419.986 289.205 421.333 289.831C422.681 290.457 423.651 292.181 423.491 293.694Z" fill="white"/>
<path d="M420.201 247.05L383.945 230.326C383.229 229.994 382.547 230.039 381.981 230.361L381.989 230.342L378.057 232.641C378.057 232.641 379.645 233.038 380.579 233.277L377.905 258.803C377.688 260.879 378.818 263.167 380.428 263.904L415.074 279.892L414.762 282.889L418.727 280.568L418.708 280.561C419.383 280.148 419.869 279.336 419.983 278.216L422.716 252.153C422.942 250.084 421.812 247.796 420.201 247.05Z" fill="#5793CE"/>
<path d="M412.676 282.971L376.429 266.246C374.818 265.5 373.689 263.221 373.905 261.144L376.638 235.081C376.855 233.004 378.335 231.921 379.946 232.667L416.193 249.393C417.804 250.139 418.933 252.417 418.717 254.494L415.983 280.558C415.767 282.634 414.287 283.717 412.676 282.971Z" fill="#D4ECFF"/>
<path d="M416.953 249.017L380.705 232.291C379.857 231.899 379.057 232.027 378.443 232.516C378.901 232.393 379.418 232.427 379.945 232.667L416.193 249.393C417.804 250.139 418.933 252.426 418.716 254.494L415.983 280.558C415.884 281.541 415.484 282.299 414.929 282.747C415.872 282.499 416.591 281.576 416.734 280.182L419.467 254.119C419.692 252.041 418.563 249.754 416.953 249.017Z" fill="white"/>
<path d="M390.27 256.084C390.11 257.597 388.885 258.313 387.538 257.687C386.191 257.062 385.221 255.337 385.38 253.824C385.54 252.312 386.765 251.596 388.112 252.221C389.459 252.847 390.43 254.581 390.27 256.084Z" fill="white"/>
<path d="M397.683 259.503C397.523 261.015 396.298 261.732 394.951 261.106C393.604 260.48 392.634 258.755 392.793 257.243C392.953 255.731 394.178 255.014 395.525 255.64C396.872 256.266 397.843 257.999 397.683 259.503Z" fill="white"/>
<path d="M405.087 262.922C404.927 264.435 403.703 265.151 402.355 264.525C401.008 263.9 400.038 262.175 400.198 260.662C400.357 259.15 401.582 258.434 402.929 259.059C404.277 259.685 405.247 261.419 405.087 262.922Z" fill="white"/>
</g>
<g clip-path="url(#clip5)">
<path opacity="0.5" d="M663.757 622.086L622.254 597.228C620.732 596.314 620.954 594.772 622.74 593.776L667.552 568.787C669.338 567.791 672.026 567.726 673.548 568.632L715.051 593.489C716.573 594.404 716.351 595.946 714.564 596.941L669.753 621.931C667.958 622.935 665.279 623 663.757 622.086Z" fill="#173D7A"/>
<path d="M716.262 577.433L671.884 550.848C670.157 549.814 668.79 547.096 668.827 544.769L670.55 437.592C670.587 435.265 672.015 434.227 673.741 435.262L718.119 461.846C719.846 462.88 721.213 465.598 721.176 467.925L719.453 575.112C719.416 577.42 717.988 578.467 716.262 577.433Z" fill="url(#paint6_linear)"/>
<path d="M718.12 461.837L673.742 435.253C672.967 434.791 672.258 434.744 671.705 435.04L620.095 463.721L622.359 472.681L666.851 606.221L718.253 577.662C718.262 577.662 718.271 577.654 718.28 577.645L718.371 577.592C719.015 577.198 719.434 576.333 719.454 575.094L721.176 467.907C721.213 465.589 719.846 462.871 718.12 461.837Z" fill="#396CAA"/>
<path d="M718.12 461.837L673.742 435.253C672.967 434.791 672.258 434.744 671.705 435.04L620.095 463.721L622.359 472.681L634.592 509.407L636.987 510.838L720.351 464.479C719.794 463.338 719.001 462.363 718.12 461.837Z" fill="#D4ECFF"/>
<path d="M664.688 606.087L620.31 579.503C618.583 578.469 617.216 575.751 617.253 573.433L618.976 466.247C619.013 463.92 620.441 462.882 622.167 463.916L666.546 490.492C668.272 491.526 669.639 494.244 669.602 496.571L667.879 603.757C667.842 606.075 666.414 607.122 664.688 606.087Z" fill="#5793CE"/>
<path d="M661.97 599.592L623.182 576.35C621.669 575.445 620.476 573.072 620.509 571.041L622.109 471.491C622.141 469.461 623.387 468.546 624.9 469.451L663.689 492.684C665.193 493.588 666.395 495.962 666.362 497.992L664.762 597.534C664.729 599.582 663.484 600.488 661.97 599.592Z" fill="url(#paint7_linear)"/>
<path d="M661.97 599.592L623.182 576.35C621.669 575.445 620.476 573.072 620.509 571.041L622.109 471.491C622.141 469.461 623.387 468.546 624.9 469.451L663.689 492.684C665.193 493.588 666.395 495.962 666.362 497.992L664.762 597.534C664.729 599.582 663.484 600.488 661.97 599.592Z" fill="url(#paint8_linear)"/>
<path d="M661.97 599.592L623.182 576.35C621.669 575.445 620.476 573.072 620.509 571.041L622.109 471.491C622.141 469.461 623.387 468.546 624.9 469.451L663.689 492.684C665.193 493.588 666.395 495.962 666.362 497.992L664.762 597.534C664.729 599.582 663.484 600.488 661.97 599.592Z" fill="#173D7A"/>
<path d="M663.267 598.858L624.47 575.616C622.966 574.72 621.764 572.337 621.797 570.307L623.396 470.766C623.408 470.074 623.56 469.519 623.818 469.11C622.83 469.085 622.133 469.982 622.109 471.5L620.509 571.041C620.476 573.072 621.669 575.454 623.182 576.35L661.971 599.583C662.968 600.174 663.842 599.981 664.34 599.198C664.008 599.193 663.641 599.079 663.267 598.858Z" fill="#396CAA"/>
<path d="M662.705 553.882L648.286 545.248L624.857 558.279L665.007 582.324L665.379 559.2C665.411 557.169 664.218 554.787 662.705 553.882Z" fill="#173D7A"/>
<path d="M663.033 533.488L648.614 524.855L625.185 537.876L665.335 561.922L665.707 538.797C665.739 536.767 664.546 534.393 663.033 533.488Z" fill="#173D7A"/>
<path d="M663.361 513.086L648.942 504.452L625.512 517.483L665.663 541.528L666.034 518.404C666.067 516.373 664.874 513.991 663.361 513.086Z" fill="#173D7A"/>
<path d="M663.689 492.693L649.27 484.059L625.84 497.081L665.99 521.126L666.362 498.001C666.395 495.971 665.202 493.598 663.689 492.693Z" fill="#173D7A"/>
<path d="M663.689 492.693L631.772 473.569L626.177 476.678L666.318 500.733L666.362 498.001C666.395 495.971 665.202 493.598 663.689 492.693Z" fill="#173D7A"/>
<path d="M666.318 500.733L626.168 476.687L625.961 489.579L666.111 513.624L666.318 500.733Z" fill="#5793CE"/>
<path d="M665.99 521.126L625.84 497.081L625.633 509.972L665.783 534.018L665.99 521.126Z" fill="#5793CE"/>
<path d="M665.662 541.528L625.512 517.483L625.305 530.375L665.455 554.42L665.662 541.528Z" fill="#5793CE"/>
<path d="M665.335 561.922L625.185 537.876L624.977 550.768L665.128 574.814L665.335 561.922Z" fill="#5793CE"/>
<path d="M665.007 582.324L624.857 558.279L624.65 571.171L664.8 595.216L665.007 582.324Z" fill="#5793CE"/>
<path d="M662.609 508.967L632.374 490.859C631.52 490.351 630.84 489.002 630.859 487.852L630.914 484.402C630.933 483.252 631.642 482.733 632.496 483.25L662.731 501.358C663.586 501.866 664.265 503.216 664.247 504.366L664.191 507.815C664.173 508.965 663.464 509.484 662.609 508.967Z" fill="#173D7A"/>
<path opacity="0.3" d="M633.93 490.22C633.076 489.712 632.396 488.362 632.415 487.212L632.47 483.762C632.473 483.583 632.503 483.421 632.532 483.269L632.496 483.25C631.642 482.742 630.933 483.252 630.914 484.402L630.859 487.852C630.84 489.002 631.52 490.343 632.374 490.86L662.609 508.968C663.33 509.402 663.937 509.097 664.121 508.309L633.93 490.22Z" fill="#06033E"/>
<path d="M653.184 499.353L634.992 488.457C634.689 488.282 634.454 487.802 634.461 487.397C634.467 486.993 634.713 486.808 635.015 486.993L653.208 497.889C653.511 498.065 653.745 498.545 653.739 498.949C653.732 499.353 653.487 499.538 653.184 499.353Z" fill="white"/>
<path d="M662.283 529.244L632.048 511.127C631.194 510.619 630.515 509.269 630.533 508.119L630.589 504.669C630.607 503.519 631.316 503.001 632.171 503.518L662.406 521.625C663.26 522.133 663.94 523.483 663.921 524.633L663.866 528.083C663.847 529.242 663.138 529.752 662.283 529.244Z" fill="#173D7A"/>
<path opacity="0.3" d="M633.604 510.496C632.75 509.988 632.071 508.639 632.089 507.489L632.144 504.039C632.147 503.859 632.177 503.698 632.206 503.546L632.171 503.518C631.316 503.01 630.607 503.52 630.589 504.67L630.533 508.12C630.515 509.27 631.194 510.61 632.049 511.127L662.284 529.235C663.004 529.669 663.611 529.364 663.795 528.577L633.604 510.496Z" fill="#06033E"/>
<path d="M652.859 519.63L634.666 508.734C634.363 508.558 634.128 508.078 634.135 507.674C634.141 507.27 634.387 507.085 634.689 507.269L652.882 518.166C653.185 518.341 653.42 518.821 653.413 519.225C653.407 519.621 653.161 519.805 652.859 519.63Z" fill="white"/>
<path d="M661.954 549.71L631.719 531.602C630.865 531.094 630.186 529.744 630.204 528.594L630.26 525.144C630.278 523.994 630.987 523.475 631.842 523.992L662.077 542.1C662.931 542.608 663.61 543.958 663.592 545.108L663.537 548.558C663.518 549.699 662.809 550.218 661.954 549.71Z" fill="#173D7A"/>
<path opacity="0.3" d="M633.275 530.952C632.421 530.444 631.742 529.094 631.76 527.944L631.816 524.495C631.818 524.315 631.848 524.154 631.877 524.001L631.842 523.974C630.987 523.466 630.278 523.976 630.26 525.126L630.204 528.575C630.186 529.725 630.865 531.066 631.72 531.583L661.955 549.691C662.676 550.125 663.283 549.82 663.466 549.032L633.275 530.952Z" fill="#06033E"/>
<path d="M652.53 540.086L634.337 529.19C634.034 529.014 633.799 528.534 633.806 528.13C633.812 527.726 634.058 527.541 634.361 527.726L652.553 538.622C652.856 538.797 653.091 539.277 653.084 539.682C653.078 540.086 652.832 540.271 652.53 540.086Z" fill="#D4ECFF"/>
<path d="M661.623 570.354L631.388 552.246C630.533 551.738 629.854 550.388 629.872 549.238L629.928 545.789C629.946 544.639 630.655 544.12 631.51 544.637L661.745 562.745C662.599 563.253 663.279 564.602 663.26 565.752L663.205 569.202C663.186 570.352 662.477 570.862 661.623 570.354Z" fill="#173D7A"/>
<path opacity="0.3" d="M632.944 551.607C632.089 551.099 631.41 549.749 631.428 548.599L631.484 545.149C631.487 544.969 631.516 544.808 631.546 544.656L631.51 544.637C630.655 544.129 629.946 544.639 629.928 545.789L629.872 549.239C629.854 550.389 630.533 551.73 631.388 552.247L661.623 570.354C662.344 570.788 662.951 570.484 663.134 569.696L632.944 551.607Z" fill="#06033E"/>
<path d="M652.198 560.74L634.005 549.844C633.702 549.668 633.467 549.188 633.474 548.784C633.48 548.38 633.726 548.195 634.029 548.38L652.221 559.276C652.524 559.451 652.759 559.931 652.752 560.336C652.746 560.74 652.5 560.916 652.198 560.74Z" fill="#F16A51"/>
<path d="M661.297 590.595L631.062 572.487C630.208 571.979 629.529 570.629 629.547 569.479L629.603 566.029C629.621 564.879 630.33 564.361 631.185 564.877L661.42 582.985C662.274 583.493 662.953 584.843 662.935 585.993L662.88 589.443C662.861 590.593 662.152 591.103 661.297 590.595Z" fill="#173D7A"/>
<path opacity="0.3" d="M632.618 571.847C631.764 571.339 631.085 569.989 631.103 568.84L631.159 565.39C631.161 565.21 631.191 565.049 631.22 564.896L631.185 564.878C630.33 564.37 629.621 564.88 629.603 566.03L629.547 569.479C629.529 570.629 630.208 571.97 631.062 572.487L661.297 590.595C662.018 591.029 662.625 590.724 662.809 589.936L632.618 571.847Z" fill="#06033E"/>
<path d="M651.873 580.981L633.68 570.085C633.377 569.909 633.142 569.429 633.149 569.025C633.155 568.62 633.401 568.436 633.703 568.62L651.896 579.516C652.199 579.692 652.434 580.172 652.427 580.576C652.421 580.981 652.175 581.156 651.873 580.981Z" fill="#D4ECFF"/>
<path opacity="0.5" d="M626.168 476.687L629.336 478.58L629.129 491.472L625.961 489.579L626.168 476.687Z" fill="#173D7A"/>
<path opacity="0.5" d="M625.84 497.081L629.009 498.974L628.802 511.866L625.633 509.972L625.84 497.081Z" fill="#173D7A"/>
<path opacity="0.5" d="M625.512 517.483L628.681 519.376L628.474 532.268L625.305 530.375L625.512 517.483Z" fill="#173D7A"/>
<path opacity="0.5" d="M625.185 537.876L628.353 539.769L628.146 552.661L624.977 550.768L625.185 537.876Z" fill="#173D7A"/>
<path opacity="0.5" d="M624.856 558.279L628.025 560.172L627.818 573.064L624.649 571.171L624.856 558.279Z" fill="#173D7A"/>
<path d="M656.785 500.687C656.778 501.1 656.488 501.258 656.132 501.054C655.776 500.842 655.496 500.334 655.503 499.921C655.509 499.507 655.8 499.35 656.156 499.554C656.512 499.766 656.791 500.274 656.785 500.687Z" fill="#D4ECFF"/>
<path d="M659.499 502.312C659.492 502.726 659.202 502.883 658.846 502.679C658.49 502.467 658.211 501.959 658.217 501.546C658.224 501.133 658.514 500.976 658.87 501.179C659.226 501.391 659.506 501.899 659.499 502.312Z" fill="#F16A51"/>
<path d="M662.214 503.938C662.207 504.351 661.917 504.508 661.561 504.305C661.205 504.092 660.925 503.584 660.932 503.171C660.939 502.758 661.229 502.601 661.585 502.804C661.932 503.016 662.22 503.524 662.214 503.938Z" fill="#D4ECFF"/>
<path d="M656.457 521.072C656.45 521.485 656.16 521.642 655.804 521.438C655.448 521.226 655.169 520.718 655.175 520.305C655.182 519.892 655.472 519.735 655.828 519.938C656.184 520.16 656.464 520.658 656.457 521.072Z" fill="#F16A51"/>
<path d="M659.171 522.697C659.165 523.11 658.875 523.267 658.519 523.064C658.163 522.851 657.883 522.344 657.89 521.93C657.896 521.517 658.187 521.36 658.543 521.563C658.899 521.785 659.178 522.284 659.171 522.697Z" fill="#D4ECFF"/>
<path d="M661.886 524.322C661.88 524.735 661.59 524.892 661.233 524.689C660.877 524.476 660.598 523.969 660.605 523.556C660.611 523.142 660.901 522.985 661.258 523.189C661.604 523.41 661.893 523.909 661.886 524.322Z" fill="white"/>
<path d="M656.127 541.618C656.12 542.031 655.83 542.188 655.474 541.985C655.118 541.772 654.838 541.264 654.845 540.851C654.852 540.438 655.142 540.281 655.498 540.484C655.854 540.697 656.133 541.204 656.127 541.618Z" fill="white"/>
<path d="M658.841 543.243C658.835 543.656 658.545 543.813 658.189 543.61C657.832 543.397 657.553 542.89 657.56 542.476C657.566 542.063 657.856 541.906 658.213 542.11C658.569 542.322 658.848 542.83 658.841 543.243Z" fill="#F16A51"/>
<path d="M661.556 544.868C661.549 545.281 661.259 545.438 660.903 545.235C660.547 545.023 660.268 544.515 660.274 544.102C660.281 543.688 660.571 543.531 660.927 543.735C661.274 543.947 661.563 544.455 661.556 544.868Z" fill="white"/>
<path d="M655.801 561.858C655.795 562.272 655.505 562.429 655.148 562.225C654.792 562.013 654.513 561.505 654.52 561.092C654.526 560.679 654.816 560.522 655.173 560.725C655.529 560.937 655.808 561.445 655.801 561.858Z" fill="white"/>
<path d="M658.516 563.484C658.509 563.897 658.219 564.054 657.863 563.85C657.507 563.638 657.228 563.13 657.234 562.717C657.241 562.304 657.531 562.147 657.887 562.35C658.243 562.563 658.523 563.07 658.516 563.484Z" fill="#D4ECFF"/>
<path d="M661.231 565.109C661.224 565.522 660.934 565.679 660.578 565.476C660.222 565.263 659.942 564.756 659.949 564.342C659.956 563.929 660.246 563.772 660.602 563.975C660.949 564.188 661.237 564.695 661.231 565.109Z" fill="#D4ECFF"/>
<path d="M655.472 582.378C655.465 582.791 655.175 582.948 654.819 582.744C654.463 582.532 654.183 582.024 654.19 581.611C654.196 581.198 654.487 581.041 654.843 581.244C655.199 581.457 655.478 581.964 655.472 582.378Z" fill="white"/>
<path d="M658.186 584.003C658.18 584.416 657.89 584.573 657.533 584.37C657.177 584.157 656.898 583.65 656.905 583.236C656.911 582.823 657.201 582.666 657.558 582.869C657.914 583.082 658.193 583.589 658.186 584.003Z" fill="#F16A51"/>
<path d="M660.901 585.628C660.894 586.041 660.604 586.198 660.248 585.995C659.892 585.782 659.613 585.275 659.619 584.861C659.626 584.448 659.916 584.291 660.272 584.495C660.619 584.707 660.908 585.215 660.901 585.628Z" fill="#D4ECFF"/>
<path d="M674.821 591.756L676.288 500.488L676.478 500.384L714.977 478.977L713.511 570.244L713.32 570.349L674.821 591.756ZM677.035 500.932L675.597 590.456L712.763 569.792L714.202 480.268L677.035 500.932Z" fill="#173D7A"/>
<path d="M704.408 519.875L687.145 529.473C685.984 530.12 685.061 529.395 685.086 527.868L685.238 518.39C685.263 516.853 686.225 515.09 687.386 514.452L704.65 504.854C705.811 504.208 706.733 504.932 706.709 506.46L706.556 515.947C706.523 517.465 705.569 519.229 704.408 519.875Z" fill="#173D7A"/>
<path d="M705.066 504.671C705.161 504.942 705.21 505.258 705.204 505.626L705.051 515.113C705.026 516.649 704.064 518.413 702.903 519.05L685.639 528.649C685.494 528.727 685.358 528.788 685.223 528.822C685.515 529.662 686.256 529.962 687.136 529.472L704.4 519.874C705.56 519.228 706.523 517.464 706.548 515.937L706.7 506.45C706.722 505.111 706.023 504.39 705.066 504.671Z" fill="#5793CE"/>
<path d="M701.374 514.119C701.691 513.945 701.949 514.093 701.943 514.461L701.909 516.617C701.903 516.985 701.635 517.421 701.318 517.596C701.001 517.771 700.742 517.623 700.748 517.254L700.783 515.098C700.789 514.73 701.056 514.294 701.374 514.119Z" fill="white"/>
<path d="M698.894 515.76C699.212 515.585 699.47 515.733 699.464 516.101L699.434 517.988C699.428 518.356 699.16 518.792 698.843 518.967C698.525 519.142 698.267 518.994 698.273 518.625L698.303 516.739C698.309 516.379 698.577 515.943 698.894 515.76Z" fill="#D4ECFF"/>
<path d="M696.453 515.029C696.77 514.854 697.028 515.002 697.022 515.37L696.958 519.368C696.952 519.736 696.684 520.172 696.367 520.347C696.05 520.522 695.792 520.374 695.798 520.005L695.862 516.017C695.868 515.648 696.135 515.212 696.453 515.029Z" fill="#F16A51"/>
<path d="M694.014 514.1C694.332 513.925 694.59 514.073 694.584 514.441L694.483 520.748C694.477 521.116 694.209 521.552 693.892 521.727C693.574 521.902 693.316 521.754 693.322 521.385L693.424 515.079C693.429 514.719 693.688 514.283 694.014 514.1Z" fill="#D4ECFF"/>
<path d="M691.528 516.145C691.846 515.97 692.104 516.118 692.098 516.486L692.007 522.128C692.001 522.497 691.734 522.933 691.416 523.107C691.099 523.282 690.841 523.134 690.847 522.766L690.937 517.124C690.943 516.755 691.202 516.319 691.528 516.145Z" fill="#D4ECFF"/>
<path d="M689.003 520.094C689.32 519.919 689.578 520.067 689.572 520.436L689.523 523.499C689.517 523.867 689.25 524.303 688.932 524.478C688.615 524.653 688.357 524.505 688.363 524.136L688.412 521.073C688.427 520.714 688.685 520.278 689.003 520.094Z" fill="white"/>
<path d="M700.825 513.014C700.82 513.373 701.069 513.521 701.386 513.347C701.703 513.172 701.962 512.736 701.968 512.376C701.974 512.017 701.724 511.869 701.407 512.044C701.09 512.228 700.831 512.655 700.825 513.014Z" fill="#F16A51"/>
<path d="M700.858 510.984C700.852 511.343 701.101 511.491 701.419 511.316C701.736 511.142 701.995 510.705 702.001 510.346C702.006 509.987 701.757 509.839 701.44 510.014C701.122 510.197 700.864 510.624 700.858 510.984Z" fill="white"/>
</g>
<defs>
<radialGradient id="paint0_radial" cx="0" cy="0" r="1" gradientUnits="userSpaceOnUse" gradientTransform="translate(483.778 329.293) rotate(71.9996) scale(481.398 1158.66)">
<stop offset="0.193564" stop-color="#F16A51"/>
<stop offset="0.607265" stop-color="#F961EA"/>
<stop offset="1" stop-color="#8061F9"/>
</radialGradient>
<linearGradient id="paint1_linear" x1="-57.4843" y1="879.753" x2="-103.806" y2="736.696" gradientUnits="userSpaceOnUse">
<stop stop-color="#F2695D"/>
<stop offset="1" stop-color="#B250DE"/>
</linearGradient>
<linearGradient id="paint2_linear" x1="593.644" y1="685.747" x2="697.188" y2="739.868" gradientUnits="userSpaceOnUse">
<stop stop-color="#D361EE"/>
<stop offset="1" stop-color="#F16A51"/>
</linearGradient>
<linearGradient id="paint3_linear" x1="775.171" y1="44.9317" x2="739.757" y2="9.14033" gradientUnits="userSpaceOnUse">
<stop stop-color="#D361EE"/>
<stop offset="1" stop-color="#F16A51"/>
</linearGradient>
<linearGradient id="paint4_linear" x1="595.802" y1="396.632" x2="847.905" y2="308.78" gradientUnits="userSpaceOnUse">
<stop offset="0.0208333" stop-color="#616FEE"/>
<stop offset="0.48107" stop-color="#D361EE"/>
<stop offset="1" stop-color="#F16A51"/>
</linearGradient>
<linearGradient id="paint5_linear" x1="58.6329" y1="717.018" x2="3.52997" y2="685.787" gradientUnits="userSpaceOnUse">
<stop stop-color="#D361EE"/>
<stop offset="1" stop-color="#F16A51"/>
</linearGradient>
<linearGradient id="paint6_linear" x1="694.071" y1="564.14" x2="745.52" y2="478.248" gradientUnits="userSpaceOnUse">
<stop stop-color="#2D0979"/>
<stop offset="1" stop-color="#5B04F7"/>
</linearGradient>
<linearGradient id="paint7_linear" x1="619.48" y1="527.512" x2="660.315" y2="521.863" gradientUnits="userSpaceOnUse">
<stop stop-color="#3919BB"/>
<stop offset="1" stop-color="#6507FA"/>
</linearGradient>
<linearGradient id="paint8_linear" x1="619.48" y1="527.512" x2="660.315" y2="521.863" gradientUnits="userSpaceOnUse">
<stop stop-color="#3919BB"/>
<stop offset="1" stop-color="#6507FA"/>
</linearGradient>
<clipPath id="clip0">
<rect width="296.928" height="305.419" fill="white" transform="translate(330.018 253.908) rotate(-3.24817)"/>
</clipPath>
<clipPath id="clip1">
<rect width="56.5518" height="56.2733" fill="white" transform="translate(206.929 467.973)"/>
</clipPath>
<clipPath id="clip2">
<rect width="42.1578" height="37.6832" fill="white" transform="translate(474.991 595.362)"/>
</clipPath>
<clipPath id="clip3">
<rect width="27.5481" height="41.9062" fill="white" transform="translate(670.719 318.83)"/>
</clipPath>
<clipPath id="clip4">
<rect width="65.1505" height="88.0174" fill="white" transform="translate(371.067 231.178) rotate(-5.22315)"/>
</clipPath>
<clipPath id="clip5">
<rect width="102.214" height="187.949" fill="white" transform="translate(619.494 434.003) rotate(0.920736)"/>
</clipPath>
</defs>
</svg>
