<svg width="954" height="414" viewBox="0 0 954 414" fill="none" xmlns="http://www.w3.org/2000/svg">
<path d="M450.426 255.193C266.832 164.877 213.678 302.875 134.5 382C25.5 469 -23 351 11.5 310.5C103 262 -8.47271 108.157 81.4073 34.2512C171.287 -39.655 254.566 24.2171 380.215 56.7269C450.426 72.3444 609.439 120.14 685.153 129.816C760.867 139.493 891.321 61.9252 947.583 161.192C1003.85 260.459 666.942 361.705 450.426 255.193Z" fill="url(#paint0_linear)"/>
<g clip-path="url(#clip0)">
<path d="M705.627 172.829V178.129C705.627 178.129 706.327 181.529 706.827 185.129C707.327 188.729 707.727 192.529 707.227 193.429C706.127 195.229 704.027 193.429 703.627 191.629C703.227 189.829 702.727 178.829 702.727 178.829L702.327 171.729L705.627 172.829Z" fill="#1D2992"/>
<path d="M711.027 172.129L710.227 176.829C710.227 176.829 708.627 189.829 709.527 191.829C710.427 193.829 713.227 192.929 713.127 190.229C712.927 187.529 713.627 178.129 713.627 178.129L715.227 172.429L711.027 172.129Z" fill="#1D2992"/>
<path d="M708.827 114.13L708.427 120.03L723.527 127.33C726.227 128.83 727.527 132.03 726.627 134.93L716.227 173.83L711.027 172.23L715.627 136.43C715.927 134.23 714.427 132.23 712.227 131.83L706.827 131.03L701.127 125.23L707.727 131.13C709.327 132.53 710.127 134.73 709.827 136.83L705.527 172.93L700.827 174.13L698.727 138.63C698.527 136.33 697.027 134.43 694.927 133.73L685.627 130.73C684.227 129.73 683.327 128.23 683.227 126.43L683.627 113.93L708.827 114.13Z" fill="#211F1D"/>
<path d="M682.727 127.229L685.227 78.7294C685.227 78.7294 695.527 78.1294 698.627 78.1294C700.327 78.1294 703.127 78.9294 705.427 79.6294C707.527 80.3294 709.327 80.2294 710.327 82.2294L727.227 114.629L716.827 115.629L713.327 111.629L715.127 108.929L708.827 94.0294L710.027 121.129L682.727 127.229Z" fill="#F16A51"/>
<path opacity="0.5" d="M709.027 88.2295L720.227 108.429L716.727 112.529C716.727 112.529 715.327 112.829 713.927 112.329L713.327 111.629L715.127 108.929L708.827 94.0295L709.027 88.2295Z" fill="url(#paint1_linear)"/>
<path d="M699.027 92.7298C695.627 92.7298 689.327 83.8298 689.327 80.4298C689.327 79.7298 689.427 79.0298 689.627 78.4298C692.827 78.2298 696.827 78.0298 698.527 78.0298C699.327 78.0298 700.327 78.2298 701.327 78.4298C701.527 79.0298 701.627 79.7298 701.627 80.3298C701.727 83.8298 702.427 92.7298 699.027 92.7298Z" fill="white"/>
<path d="M683.927 87.1294L682.727 127.529L699.427 123.529L683.927 87.1294Z" fill="#D65E48"/>
<path d="M699.627 73.1295C699.327 73.7295 697.327 81.6295 697.327 81.6295C697.327 81.6295 696.627 82.9295 694.827 82.8295C693.127 82.7295 692.327 80.2295 692.327 80.2295L695.327 70.2295L699.627 73.1295Z" fill="#EEBCC5"/>
<path d="M688.927 68.2296C688.927 73.7296 694.727 79.8296 700.227 79.8296C705.727 79.8296 708.827 73.7296 708.827 68.2296C708.827 62.7296 704.427 58.3296 698.927 58.3296C693.327 58.3296 688.927 62.7296 688.927 68.2296Z" fill="#EEBCC5"/>
<path d="M701.619 79.9259C707.638 78.4977 711.359 72.4608 709.931 66.4422C708.503 60.4237 702.466 56.7025 696.447 58.1307C690.429 59.559 686.708 65.5958 688.136 71.6144C689.564 77.633 695.601 81.3542 701.619 79.9259Z" fill="#EEBCC5"/>
<path d="M706.427 75.1298C706.227 75.5298 706.227 75.9298 706.527 76.1298C706.827 76.3298 707.227 76.1298 707.427 75.7298C707.627 75.3298 707.627 74.9298 707.327 74.7298C707.027 74.5298 706.627 74.7298 706.427 75.1298Z" fill="#3E3577"/>
<path d="M700.727 75.7295C700.527 76.1295 700.527 76.6295 700.827 76.8295C701.127 77.0295 701.527 76.8295 701.827 76.3295C702.027 75.9295 702.027 75.4295 701.727 75.2295C701.427 75.0295 701.027 75.2295 700.727 75.7295Z" fill="#3E3577"/>
<path d="M696.927 122.629C697.327 122.529 701.027 120.729 703.627 120.729C706.227 120.729 709.427 123.529 709.427 123.529C709.427 123.529 709.827 124.929 708.127 124.729C706.427 124.429 708.327 125.829 708.327 125.829C708.327 125.829 708.227 125.729 706.227 126.029C704.227 126.329 696.327 125.929 696.327 125.929L696.927 122.629Z" fill="#EEBCC5"/>
<path d="M685.127 78.7295L683.727 110.629L696.827 122.529L696.227 125.829L677.827 116.029C676.027 115.029 675.027 113.129 675.327 111.129L678.627 86.6295C678.927 83.6295 680.727 80.9295 683.527 79.5295L685.127 78.7295Z" fill="#F16A51"/>
<path d="M695.627 128.629H729.027V126.129H695.627C694.927 126.129 694.427 126.629 694.427 127.329C694.327 128.029 694.927 128.629 695.627 128.629Z" fill="white"/>
<path d="M704.727 128.629H737.027C738.427 128.629 739.727 127.629 740.027 126.329L745.727 104.929C746.227 102.929 744.727 100.929 742.727 100.929H714.527C713.127 100.929 711.827 101.929 711.527 103.229L704.727 128.629Z" fill="#5793CE"/>
<path d="M699.027 57.8296C704.727 57.8296 709.527 62.1296 710.127 67.7296C708.227 69.1296 705.627 69.8296 703.227 69.4296C700.427 68.9296 697.927 67.0296 696.727 64.4296C696.827 65.6296 696.927 66.9296 696.727 68.1296C696.527 69.3296 696.027 70.5296 695.027 71.3296C694.927 70.4296 694.827 69.5296 694.427 68.8296C693.927 68.1296 693.027 67.5296 692.227 67.8296C691.627 68.0296 691.227 68.6296 691.227 69.3296C691.127 69.9296 691.327 70.5296 691.527 71.1296C691.927 72.0296 692.427 72.9296 693.127 73.6296C691.827 73.8296 690.427 74.0296 689.127 73.8296C688.427 72.3296 688.027 70.7296 688.027 69.0296C687.827 62.8296 692.827 57.8296 699.027 57.8296Z" fill="#1D2992"/>
<path d="M689.427 70.8292C689.427 72.7292 690.927 74.2292 692.827 74.2292C694.727 74.2292 696.227 72.7292 696.227 70.8292C696.227 68.9292 694.727 67.4292 692.827 67.4292C690.927 67.4292 689.427 68.9292 689.427 70.8292Z" fill="#EEBCC5"/>
<path d="M711.027 172.129L710.427 175.729L714.027 176.829L714.927 173.329L711.027 172.129Z" fill="#EEBCC5"/>
<path d="M705.627 176.83L702.627 177.33L702.527 173.63L705.627 172.83V176.83Z" fill="#EEBCC5"/>
<path d="M685.627 53.8294C685.627 57.8294 688.827 61.0294 692.827 61.0294C696.827 61.0294 700.027 57.8294 700.027 53.8294C700.027 49.8294 696.827 46.6294 692.827 46.6294C688.827 46.6294 685.627 49.8294 685.627 53.8294Z" fill="#1D2992"/>
</g>
<defs>
<linearGradient id="paint0_linear" x1="104.73" y1="-82.9025" x2="511.149" y2="572.735" gradientUnits="userSpaceOnUse">
<stop offset="0.0104167" stop-color="#F16A51"/>
<stop offset="0.494792" stop-color="#B761F2"/>
<stop offset="0.979167" stop-color="#5869FF"/>
</linearGradient>
<linearGradient id="paint1_linear" x1="720.21" y1="100.418" x2="708.764" y2="100.418" gradientUnits="userSpaceOnUse">
<stop stop-color="#D37897" stop-opacity="0"/>
<stop offset="0.8988" stop-color="#BC547C"/>
</linearGradient>
<clipPath id="clip0">
<rect width="70.6" height="147.6" fill="white" transform="translate(675.227 46.6294)"/>
</clipPath>
</defs>
</svg>
