<svg width="375" height="216" viewBox="0 0 375 216" fill="none" xmlns="http://www.w3.org/2000/svg">
<path d="M-132.139 299.673C-75.3487 229.967 -4.61821 143.151 109 203.566C120.137 209.488 131.641 214.615 143.405 219.002H375V226.606C458.58 204.45 515.45 159.067 493.655 117.618C465.033 63.1859 383.092 87.4988 310.008 109.184C274.566 119.7 241.206 129.598 217.02 129.598C168.849 129.598 136.149 116.03 103.827 102.619C86.4559 95.4118 69.1942 88.2495 49.6987 83.2629C-49.994 54.085 -111.834 47.7428 -185.599 104.596C-228.386 137.573 -226.353 171.892 -224.548 202.351C-223.241 224.404 -222.055 244.433 -238.085 260.463C-276.257 298.635 -220.59 374.978 -176.056 349.531C-162.062 336.401 -147.618 318.673 -132.139 299.673Z" fill="url(#paint0_linear)"/>
<path d="M335.8 95.54C322.2 95.54 311.1 106.64 311.1 120.24V164.84C311.1 178.44 322.2 189.54 335.8 189.54C349.4 189.54 360.5 178.44 360.5 164.84V120.24C360.5 106.64 349.4 95.54 335.8 95.54Z" fill="#B461F2"/>
<path d="M335.9 107.54H335.1V216.34H335.9V107.54Z" fill="#F6D1FF"/>
<path d="M323.2 140.34L335.3 150.44L348.8 140.84L348.4 140.14L335.3 149.44L323.9 139.74L323.2 140.34Z" fill="#F6D1FF"/>
<path d="M323.2 164.54L335.3 174.64L348.8 165.04L348.4 164.34L335.3 173.64L323.9 163.94L323.2 164.54Z" fill="#F6D1FF"/>
<path d="M323.2 116.14L335.3 126.24L348.8 116.64L348.4 115.94L335.3 125.24L323.9 115.54L323.2 116.14Z" fill="#F6D1FF"/>
<path d="M342.7 216.44H329.6C329.3 216.44 329.1 216.24 329.1 215.94C329.1 215.64 329.3 215.44 329.6 215.44H342.7C343 215.44 343.2 215.64 343.2 215.94C343.2 216.14 343 216.44 342.7 216.44Z" fill="#B461F2"/>
<g clip-path="url(#clip0)">
<path d="M54.7841 126.34V131.64C54.7841 131.64 55.4841 135.04 55.9841 138.64C56.4841 142.24 56.8841 146.04 56.3841 146.94C55.2841 148.74 53.1841 146.94 52.7841 145.14C52.3841 143.34 51.8841 132.34 51.8841 132.34L51.4841 125.24L54.7841 126.34Z" fill="#1D2992"/>
<path d="M60.1841 125.64L59.3841 130.34C59.3841 130.34 57.7841 143.34 58.6841 145.34C59.5841 147.34 62.3841 146.44 62.2841 143.74C62.0841 141.04 62.7841 131.64 62.7841 131.64L64.3841 125.94L60.1841 125.64Z" fill="#1D2992"/>
<path d="M57.984 67.6399L57.584 73.5399L72.684 80.8399C75.384 82.3399 76.684 85.5399 75.784 88.4399L65.384 127.34L60.184 125.74L64.784 89.9399C65.084 87.7399 63.584 85.7399 61.384 85.3399L55.984 84.5399L50.284 78.7399L56.884 84.6399C58.484 86.0399 59.284 88.2399 58.984 90.3399L54.684 126.44L49.984 127.64L47.884 92.1399C47.684 89.8399 46.184 87.9399 44.084 87.2399L34.784 84.2399C33.384 83.2399 32.484 81.7399 32.384 79.9399L32.784 67.4399L57.984 67.6399Z" fill="#211F1D"/>
<path d="M31.884 80.7396L34.384 32.2396C34.384 32.2396 44.684 31.6396 47.784 31.6396C49.484 31.6396 52.284 32.4396 54.584 33.1396C56.684 33.8396 58.484 33.7396 59.484 35.7396L76.384 68.1396L65.984 69.1396L62.484 65.1396L64.284 62.4396L57.984 47.5396L59.184 74.6396L31.884 80.7396Z" fill="#F16A51"/>
<path opacity="0.5" d="M58.1841 41.7397L69.3841 61.9397L65.8841 66.0397C65.8841 66.0397 64.4841 66.3397 63.0841 65.8397L62.4841 65.1397L64.2841 62.4397L57.9841 47.5397L58.1841 41.7397Z" fill="url(#paint1_linear)"/>
<path d="M48.1841 46.24C44.7841 46.24 38.4841 37.34 38.4841 33.94C38.4841 33.24 38.5841 32.54 38.7841 31.94C41.9841 31.74 45.9841 31.54 47.6841 31.54C48.4841 31.54 49.4841 31.74 50.4841 31.94C50.6841 32.54 50.7841 33.24 50.7841 33.84C50.8841 37.34 51.5841 46.24 48.1841 46.24Z" fill="white"/>
<path d="M33.084 40.6396L31.884 81.0396L48.584 77.0396L33.084 40.6396Z" fill="#D65E48"/>
<path d="M48.7841 26.6397C48.4841 27.2397 46.4841 35.1397 46.4841 35.1397C46.4841 35.1397 45.7841 36.4397 43.9841 36.3397C42.2841 36.2397 41.4841 33.7397 41.4841 33.7397L44.4841 23.7397L48.7841 26.6397Z" fill="#EEBCC5"/>
<path d="M38.084 21.7398C38.084 27.2398 43.884 33.3398 49.384 33.3398C54.884 33.3398 57.984 27.2398 57.984 21.7398C57.984 16.2398 53.584 11.8398 48.084 11.8398C42.484 11.8398 38.084 16.2398 38.084 21.7398Z" fill="#EEBCC5"/>
<path d="M50.7763 33.4362C56.7949 32.0079 60.5161 25.9711 59.0878 19.9525C57.6596 13.9339 51.6227 10.2127 45.6041 11.641C39.5856 13.0692 35.8644 19.1061 37.2926 25.1247C38.7209 31.1432 44.7577 34.8644 50.7763 33.4362Z" fill="#EEBCC5"/>
<path d="M55.584 28.6401C55.384 29.0401 55.384 29.4401 55.684 29.6401C55.984 29.8401 56.384 29.6401 56.584 29.2401C56.784 28.8401 56.784 28.4401 56.484 28.2401C56.184 28.0401 55.784 28.2401 55.584 28.6401Z" fill="#3E3577"/>
<path d="M49.884 29.2397C49.684 29.6397 49.684 30.1397 49.984 30.3397C50.284 30.5397 50.684 30.3397 50.984 29.8397C51.184 29.4397 51.184 28.9397 50.884 28.7397C50.584 28.5397 50.184 28.7397 49.884 29.2397Z" fill="#3E3577"/>
<path d="M46.0841 76.1397C46.4841 76.0397 50.1841 74.2397 52.7841 74.2397C55.3841 74.2397 58.5841 77.0397 58.5841 77.0397C58.5841 77.0397 58.9841 78.4397 57.2841 78.2397C55.5841 77.9397 57.4841 79.3397 57.4841 79.3397C57.4841 79.3397 57.3841 79.2397 55.3841 79.5397C53.3841 79.8397 45.4841 79.4398 45.4841 79.4398L46.0841 76.1397Z" fill="#EEBCC5"/>
<path d="M34.2841 32.2397L32.8841 64.1397L45.9841 76.0397L45.3841 79.3397L26.9841 69.5397C25.1841 68.5397 24.1841 66.6397 24.4841 64.6397L27.7841 40.1397C28.0841 37.1397 29.8841 34.4397 32.6841 33.0397L34.2841 32.2397Z" fill="#F16A51"/>
<path d="M44.7842 82.1396H78.1842V79.6396H44.7842C44.0842 79.6396 43.5842 80.1396 43.5842 80.8396C43.4842 81.5396 44.0842 82.1396 44.7842 82.1396Z" fill="white"/>
<path d="M53.8843 82.1395H86.1843C87.5843 82.1395 88.8843 81.1395 89.1843 79.8395L94.8843 58.4395C95.3843 56.4395 93.8843 54.4395 91.8843 54.4395H63.6843C62.2843 54.4395 60.9843 55.4395 60.6843 56.7395L53.8843 82.1395Z" fill="#5793CE"/>
<path d="M48.184 11.3398C53.884 11.3398 58.684 15.6398 59.284 21.2398C57.384 22.6398 54.784 23.3398 52.384 22.9398C49.584 22.4398 47.084 20.5398 45.884 17.9398C45.984 19.1398 46.084 20.4398 45.884 21.6398C45.684 22.8398 45.184 24.0398 44.184 24.8398C44.084 23.9398 43.984 23.0398 43.584 22.3398C43.084 21.6398 42.184 21.0398 41.384 21.3398C40.784 21.5398 40.384 22.1398 40.384 22.8398C40.284 23.4398 40.484 24.0398 40.684 24.6398C41.084 25.5398 41.584 26.4398 42.284 27.1398C40.984 27.3398 39.584 27.5398 38.284 27.3398C37.584 25.8398 37.184 24.2398 37.184 22.5398C36.984 16.3398 41.984 11.3398 48.184 11.3398Z" fill="#1D2992"/>
<path d="M38.5842 24.3395C38.5842 26.2395 40.0842 27.7395 41.9842 27.7395C43.8842 27.7395 45.3842 26.2395 45.3842 24.3395C45.3842 22.4395 43.8842 20.9395 41.9842 20.9395C40.0842 20.9395 38.5842 22.4395 38.5842 24.3395Z" fill="#EEBCC5"/>
<path d="M60.1842 125.64L59.5842 129.24L63.1842 130.34L64.0842 126.84L60.1842 125.64Z" fill="#EEBCC5"/>
<path d="M54.7841 130.34L51.7841 130.84L51.6841 127.14L54.7841 126.34V130.34Z" fill="#EEBCC5"/>
<path d="M34.7842 7.33965C34.7842 11.3396 37.9842 14.5396 41.9842 14.5396C45.9842 14.5396 49.1842 11.3396 49.1842 7.33965C49.1842 3.33965 45.9842 0.139648 41.9842 0.139648C37.9842 0.139648 34.7842 3.33965 34.7842 7.33965Z" fill="#1D2992"/>
</g>
<defs>
<linearGradient id="paint0_linear" x1="-167.152" y1="-35.3869" x2="141.414" y2="499.35" gradientUnits="userSpaceOnUse">
<stop offset="0.0104167" stop-color="#F16A51"/>
<stop offset="0.494792" stop-color="#B761F2"/>
<stop offset="0.979167" stop-color="#5869FF"/>
</linearGradient>
<linearGradient id="paint1_linear" x1="69.3666" y1="53.9285" x2="57.9208" y2="53.9285" gradientUnits="userSpaceOnUse">
<stop stop-color="#D37897" stop-opacity="0"/>
<stop offset="0.8988" stop-color="#BC547C"/>
</linearGradient>
<clipPath id="clip0">
<rect width="70.6" height="147.6" fill="white" transform="translate(24.384 0.139648)"/>
</clipPath>
</defs>
</svg>
